<mxfile host="app.diagrams.net" modified="2023-06-27T02:47:04.946Z" agent="Mozilla/5.0 (Windows NT 10.0; Win64; x64) AppleWebKit/537.36 (KHTML, like Gecko) Chrome/114.0.0.0 Safari/537.36" etag="QYaoZ_FzYr4RJrATBUhm" version="21.5.0" type="device">
  <diagram name="페이지-1" id="LRV9yE4w53HvQbfg9ijL">
    <mxGraphModel dx="1395" dy="663" grid="1" gridSize="10" guides="1" tooltips="1" connect="1" arrows="1" fold="1" page="1" pageScale="1" pageWidth="827" pageHeight="1169" math="0" shadow="0">
      <root>
        <mxCell id="0" />
        <mxCell id="1" parent="0" />
        <mxCell id="JSBXhnSBdoEHyfM7yJ-U-1" value="" style="rounded=0;whiteSpace=wrap;html=1;" parent="1" vertex="1">
          <mxGeometry x="20" y="80" width="770" height="500" as="geometry" />
        </mxCell>
        <mxCell id="JSBXhnSBdoEHyfM7yJ-U-2" value="JS Runtime" style="rounded=1;whiteSpace=wrap;html=1;" parent="1" vertex="1">
          <mxGeometry x="20" y="20" width="120" height="60" as="geometry" />
        </mxCell>
        <mxCell id="JSBXhnSBdoEHyfM7yJ-U-3" value="" style="rounded=0;whiteSpace=wrap;html=1;" parent="1" vertex="1">
          <mxGeometry x="250" y="120" width="210" height="310" as="geometry" />
        </mxCell>
        <mxCell id="JSBXhnSBdoEHyfM7yJ-U-4" value="Memory Heap" style="rounded=1;whiteSpace=wrap;html=1;" parent="1" vertex="1">
          <mxGeometry x="250" y="120" width="210" height="40" as="geometry" />
        </mxCell>
        <mxCell id="JSBXhnSBdoEHyfM7yJ-U-7" value="" style="rounded=0;whiteSpace=wrap;html=1;" parent="1" vertex="1">
          <mxGeometry x="40" y="120" width="200" height="310" as="geometry" />
        </mxCell>
        <mxCell id="JSBXhnSBdoEHyfM7yJ-U-6" value="Call Stack" style="rounded=1;whiteSpace=wrap;html=1;" parent="1" vertex="1">
          <mxGeometry x="40" y="120" width="200" height="40" as="geometry" />
        </mxCell>
        <mxCell id="xzAWG37LkjonEWlrzQVd-6" style="edgeStyle=orthogonalEdgeStyle;rounded=0;orthogonalLoop=1;jettySize=auto;html=1;entryX=0;entryY=0.5;entryDx=0;entryDy=0;" edge="1" parent="1" source="JSBXhnSBdoEHyfM7yJ-U-9" target="xzAWG37LkjonEWlrzQVd-4">
          <mxGeometry relative="1" as="geometry">
            <Array as="points">
              <mxPoint x="65" y="460" />
              <mxPoint x="10" y="460" />
              <mxPoint x="10" y="340" />
            </Array>
          </mxGeometry>
        </mxCell>
        <mxCell id="JSBXhnSBdoEHyfM7yJ-U-9" value="Event Loop" style="ellipse;shape=umlControl;whiteSpace=wrap;html=1;" parent="1" vertex="1">
          <mxGeometry x="30" y="490" width="70" height="80" as="geometry" />
        </mxCell>
        <mxCell id="JSBXhnSBdoEHyfM7yJ-U-11" value="Web API" style="rounded=1;whiteSpace=wrap;html=1;" parent="1" vertex="1">
          <mxGeometry x="660" y="90" width="120" height="40" as="geometry" />
        </mxCell>
        <mxCell id="xzAWG37LkjonEWlrzQVd-3" style="edgeStyle=orthogonalEdgeStyle;rounded=0;orthogonalLoop=1;jettySize=auto;html=1;exitX=0;exitY=0.5;exitDx=0;exitDy=0;entryX=1;entryY=0.55;entryDx=0;entryDy=0;entryPerimeter=0;" edge="1" parent="1" source="JSBXhnSBdoEHyfM7yJ-U-13" target="JSBXhnSBdoEHyfM7yJ-U-9">
          <mxGeometry relative="1" as="geometry" />
        </mxCell>
        <mxCell id="JSBXhnSBdoEHyfM7yJ-U-13" value="" style="rounded=0;whiteSpace=wrap;html=1;" parent="1" vertex="1">
          <mxGeometry x="510" y="450" width="190" height="90" as="geometry" />
        </mxCell>
        <mxCell id="JSBXhnSBdoEHyfM7yJ-U-19" value="Callback Queue" style="rounded=1;whiteSpace=wrap;html=1;" parent="1" vertex="1">
          <mxGeometry x="510" y="410" width="190" height="40" as="geometry" />
        </mxCell>
        <mxCell id="JSBXhnSBdoEHyfM7yJ-U-25" value="Javascript Engine" style="swimlane;whiteSpace=wrap;html=1;" parent="1" vertex="1">
          <mxGeometry x="30" y="90" width="440" height="350" as="geometry" />
        </mxCell>
        <mxCell id="xzAWG37LkjonEWlrzQVd-1" value="" style="shape=image;verticalLabelPosition=bottom;labelBackgroundColor=default;verticalAlign=top;aspect=fixed;imageAspect=0;image=data:image/png,iVBORw0KGgoAAAANSUhEUgAAAbgAAAMVCAYAAAAF1+GqAAAgAElEQVR4nOzdb3BUVb7o/e889bzxOARaDDoZwEnHJAgCN5VEYg1GBtJGghSTkOFMpywNwQoG9DBcEK7TpE6mQo8PjimHoxCgRgwWRTwI5FiaYOzIQXDKxk4qVzwwaTDJCJzckcg0JHrnZT8vdv/Z3dndvbvT+df9+1TtKnr/WXv1ju5fr7V+e68fAW50cDqdZGdn69lVl9TCZ/i1oYs33r8E/IIHtr/EfIN/++3P/8DnH/6nf8VPf8ejm/KZobldffwPXN7fzo83LeZvlhe5pTrnzPVtPDLTwdnX/pV/qCuzoJQXH7ziqYsQQohE8CMmKMBNhJnr28gaDAqcQgghEtL/M9EVGDf5b/DIg71ckeAmhBBJ4f+d6AqMufw3WPnLDJSuy18FdFkKIYRIXEnVRSmEECJ5JE8XpRBCiKQiAU4IIURCkgAnhBAiIUmAE0IIkZAkwAkhhEhIEuB0uuup91hpbWNB/kTXRAghhB4S4MbBzPVtPPrULya6GkIIkVSmZoCb9TjPvFjKgnE85T8+/BWnLSVccsS33NTCZ3imMDW+hQohhJiCD3ovKOXF5bO5ceYNWtTvRva9sUQx4mXNPMcCaxlzvR9d/pcue99R+b/ZxLJH7wbg2n94g5n6OOVtKN/8t7/Uu556j//Bfq6kvsQjDxJw7F1PvecrL8DXpzj99p+8X4jSF5cz+9oZedmzEELEmVvP4nQ6de03lktq4TPuF198xv34rOBtz7kXWN9zP/DTUMc+515gbXM/+tQvNLfPXN/mXmltc69c/5wbcN/11Hvuldt/575Lxznueuo990p12flvuFda33DPDCo/1LmVJdX9+LMvul989nF36gRfY1lkkUWWRFmmTBflgjUv8uvFw5x54x0+vam1x92k5WiPc931VDFzXQ7+d7gXLbscnPW0qv7RfZnbhnv4J72V+/qUv7Xo+JJr3M+Pf6r3YIBBPj3yBmduL+LX49z1KoQQiWqKBLgFZM0Nt/1PXNrvgEdfYqW1jZXWN5ip2vpPqXfDreuBc8AFud1z1r/9v/+Vz4PmkovO3fw4LdZjZ5MrY3JCCDFqU2Q2gUu0vHFJmST1xWe49981WnH//a98blH+eddT77HM+gZfeILU/x38AcY1ZvzA9wPR7J/K48/+mkVc5N03PmVwrKolhBBJZIq04BSD597hjTPDLPrnFykN04/3j2//Fvi5+zK3Hywbl2fYZq4vY67rMjdViSj/d/AHZsxbxl2aR3iC2+0zvHFEgpsQQsTL1MuiBOUxgX++h643WrgEIzIotbId+enveHRTPjO8nzWyKDVn+h5RdmD5IzIlVeX6/YIHtr/EfIPnoyqLMrXwGVZymnfOSWgTQoh4mpoBbhK566n3WJbarkr7F0IIMRlMqS5KIYQQQi8JcEIIIRKSdFEKIYRISNKCE0IIkZCmRIBzOp0TXQUhhBBTzJQIcEIIIUS0JMCNA4O5BLM5ZdyOG38p5NaVkJs10fXwyFqAuW4Bhsh7RnWc9t9jEn33FUvZtGV2zN/fYC5Rjh+n44QYa1PkVV2TWNYCzBsXad9Mrp1n/94bIQ6cTXHDIr472EbXFf9a4xYzS2620tw8FF0dKuCjuku4Yq2rh6tT49wrlrKpZI6+fQOkkFu3iiXTwuwS9hqFZtxi5knf+0nvcCHoOuquS4zn10f7bzxaBnMJ5rzpnk96vjsh/4YMX6Q53H83of6biXRcuHP66Ky7EDFKzgC3YimbHnOF/B80qiBz5RLN2zzzuOkNNPE2x4BhGhgg/HnVddVgMJfwpNaGTz5j/yc69x0h/jcx4xYzT3Ke/ds8gSlrAeaNJRD2PEN01TXTpV61YimbHg4KlsMXVTvMprjhMQLfY7OKTXn+fZvrro/260TFYC7BnP0Nzds8/42tWMqmjUtxbfuMvnAHavwNlf8PdJw0OJh5/jvXZUx/QAgRXhIGuBRyH5tD7/nPtINB1gKWzL3Ohb1RtKAmlPJ9AJaYU+iLpuWnV8gWXPxPFdlsMude56NtqpvmlUt81PkA5pWz6boS6mYaqgX3V/r2NrMfNG7cN2jf1hyhPuPZhZyCMRsuHFMFm08ucuGxVTzZYFY+X/vr+FRl2iLMDYv8n6+Nz2mFiEbyBbisOWRxkY+Cf816GHIfgM4Iv4ZDmWPAML5tN4xbVpHlbGV/M+TWrcJsjrJ7U6+Yf4lPZ8lGM0s0t41/F1VvWzPtQX/70C04r6CWnJ7uOZ9w31+7PtHzXMc5Sot0XKiugcFcgnlWiP3mPsamhhDbpHUnxljSBTjjykXgbA1xc5rNI3lw5WBsAcL48ByYloIx69KIm7Yhz9O1FXBz1L75uW5GOg7f2Mjf25pp9twgu+qacW0xs6lO+wYcOG6lLf6tsngHsRtcvfYYT26Z7b85Zi3gyTy4cDC2m2XoFhx4gxttzb4uPoO5BHMdOoKcnhZgNIboc4K5YgF93nOvWMQSvqH5ChBuuCvkGNwY/yCTICYmUHIFuAjdjwbzIjKuXaQ9lpuxp+yP2uBJja4y7YSMkTd/45bAgDfiOO+g//BFmrc1j7jB9u1tZn/WAswNZmUf1U3YdyMPIey4Wqhf4tfOs3+cu3P79jbz0Razqj76g2hGiZlNJYHrwraiVvyMjGvnA8avXM2fcaFuqeqHjP+HSnxaZKG5mttoNpf4uwejaU1G1fJUCe6O9JQlxGSXVAHOkPsAhmsXQ3Q/pmDMnk7v+Vh+baaQW6G0pvo+SeHCY6soXjFGN7oIiSK699FgmDWdv/+XRrDSSlAI0lXXFmJL+C66WG+6YYP1lUs01wWv1Egy0XWcHkEBVke2atjjI3A1t7Ffq2Ho+zvdiPF7aIjxvyWfcF2UjP0PApHckijAKd2PIbuxVixiCRd93X3RMG5ZxRKX91f+EF3HLmLeWELu9URKgQ6X8p5Cbt1SOBa8TUdQiVW4TNgw2awRu2mDA+4nf6W35LGAHywG81J/t6CW0QYFPSKl4MfaWosnHT+MhBhLyRPgVvyMjOFv+CLETcn48BxczotR3xCUbr2gcYYrl2g+CGZP+nboMiOPwY2fFAyGO3w3vlnv4y5sy09zDO4G7dvOU9yg6trUHTxmU9zwM65GSuGPRbjgESqNX6urEfC2IMPVMabnM4WYYEkS4Mbu0QBXc5v2DfPKJZq3Kf/U7qqKJQFBx4PTwfXrbKXZk2Gp6zhPwNUeM4yQETnqekZ5/UPesInzGFG8k0XiQEcLLoCO1pQhN7aqjPh/IOID3sGu89FY/AgQSS85AlzWHLKmXedCmEcDQo/NTSaxd/nFp6sw1FiRp4vSZwy7JtVCtaSieRB5KpsM3ZBapGtSTBJJEeCMKxdBZ2uIABZhbE6o6G3BjZNxa8GNxhz/Q9gaRpVkEe77j7ZsDb5HVjRJK0xMPlNiwlOZbFUIIUS0ZDYBIYQQCUkCnBBCiIQkAU4IIURCkgAnhBAiIUmAE0IIkZAkwAkhhEhIEuCEEEIkJAlwo5RW78B6YPdEV0MIIUQQCXBJbp7ldxxqeZ3/VTXRNRFCiPiSAJe0Mnnundd5jq/l9UpCiISUFO+iTKt3UEEjZ1N3UJqhrOs7NY+3GgGqWH1yB7M6vJ+V/TentmN5vo/VJ2vg8k0KCjKg9wQtlFOaoT5ekXegR6Nsf/kFKZ6PvSewPL8rYNusjnl8udh7/DD2Pfl80DF21wNgnuVp7j27le2HTfyvltD7WU87KTf2ciK7BMvYVkkIIeIqaVpwhoIdLBt8FYtpHvvswxiLmkjTdeQ0CuYPsm+PHVdGOcsGX1WOX6wad/Ost5jmYTnVi7GsFe87afMO7KBg8ISyzfQq9tRyttcH9gcay3p8x7f0TqOgfOzH9Hqs/8r/d3jMTyOEEBMmaQIcvSd4rVa5ow98eglXSqrOAAd9HZUMKIVwtlYjKqjKprGbPjJYXAOwm8UZvbT4WmyH+aCjF8P8wsBzq47v/LIXUmfrqNsG/u3DD/kweDlWxzKd30sPy8pssqX1JoSYgpKii3J89XFzCGYBFM3GQAalth5K1bsMDQYe8eUu/4fGVVga0eEt/uWpt0ZdWyGESFQS4OLOyKyUYW5e9X7upcW0is64n2cD//ZhKcbg1UOdvFZRx9m4n08IIaYWCXAehrQq4DDUtLK5YBr0xlZOWn0xxqFLnO4AOIezZgelB3bT+fyuSIdGaXxacEqSyRD2V/J5tmnMTyeEEHEjAY7DfNBYSPbOHVhtO2DITot9FqWpURSRUY7VVq78e8jOvrXeMbvDfLAWOLnDvx1w2V/1j9lNlKotHFr9M//n1a9zaDX0fbA1IPmkd3AIjCnMX14FTZKVIoSYWtx6FqfTqWu/sVgm8txJv/y+ze10OtxHKidBXWSRRRZZolikBSdCsNLmLCcD6Z4UQkxNEuBECBZKsuXhACHE1JU8z8EJIYRIKhLghBBCJCQJcEIIIRKSBDghhBAJSQKcEEKIhCQBTgghREJKzgC3Yimb6hZgCLHZuMWM2ZwSYqsQQoipIAmfg0sh97E59J7/DJfW5qwFLJl7nQt7h8avSlkLMG9chOHaefbvvRH9cZ6PvW3NtH8yJjUMkkJu3SqWTPN+vsOFg210XRmPcwshhD7JF+Cy5pDFRT4KEQgMuQ9A52f0jVN1DOYSzNnfcOEaLInqyBRyKx7gysFmJbCsWMqmkhJyr49HoBmiq66ZLu/HFUvZtHEprm3jd92EECKSpOuiNK5cBM7r2q03ZvNIHlzpGqfWW9YCnpx1kf11l0LUR2Ewl2h0qQ7RVacKZp/8lV6mc++cMattaNddYesvhBATIblacBG6Hw3mRWRcu0j7eHW1XblEcwJ06xlyH8Bw7aK03oQQk0pSBbjwN+IUjNnT6T0fxRjYJGLc8hgZwxdp1jkGZzCXYM6bPmK9/nG82RQ3PEYGoIzBTc3rJoRIXEkU4JTux5A34hWLWIL+ADHmghJIYBHmhkUAuDpbaW72t0IN5hKenHudj7aF7+pUczW3sb95NBW8Qfs2bwGzKW4wUzxuSS5CCBFZ8gS4FT8jY/gbvgjRJWh8eA4u58XJM5Z05RLN2y4B/kSUZo2xOqUlBhcORpfgMfoWnNoNrl6DJbNSgHHMPhVCiDCSJMBNwkcD4sAf3KLPnBx9C04lawFL5t7hyumpdf2EEIktOQJc1hyypl3nQphHAyYmSUI9jgXwGJsaAF3Pw83mEU8LbMlGs/8Rg+GLmi29+AqutzwHJ4SYnHRN/e10Oids2vHRntu4xew2m1NCbJ/tLm4ocedmTfz06rLIIossssRv+ZHnHxE5nU6ys7P17Bp3E3luIYQQU1PSPegthBAiOUiAE0IIkZAkwAkhhEhIEuCEEEIkJAlwQgghEpIEOCGEEAlJApwQQoiEJAFuguUd6MFqU5bt9VVxLXvjgb3YbMrSUp8Z17IDVIPzXYhv7UPZzQabg9VFY1T8cnCM23cRQowlCXATrPP5eVhM82jpjX/ZB5/fgsm0hRNjULbPcnCUgv0QHB7D04ybM/DxLdi5b6IrIoQYLQlwYlSOVAMX4NkzE12T+LFsBvtMaKue6JoIIUYjOV62DChdW+UYvR+H7OxbW8lApG01rVgXd7NvsJjNBdMAcNlf5bVaf3slrd7h2wbQd2oebzXqOW9kgWX30mJaRaf+Lx3W8vp6Xi5I8X3++tQWahr92zce2Et5RuAx39vfpLT2qvKhGgqAPXVBBUe4Zmn1DjantmN5fpeyf1ET23emcta0is6aVqyLB7GnFlCQMoz91CWyywowBF+3zCa27yxQ5ssL2hbumuUd6GHZ4Ksco8a3T+DfS/HsGXAuhyqNlmnVOw52LgH7K/k82xTq6gohJlqStOCUIGOwv4rFpHQJWnw3xCpWn1RvexU7BWw+sNt/eEa5ckM2zcNyqhdDwVryvNuKmqgouEmLt1yT+mapo+xwalrZrCp7n30WpSebSIvHJan5DS8X3OKESenGNJ3q58GyeqxF/u3lGf2e7W/yxRDQ2+oPboB1MQz1hOiaDHfNIskoYFbHPFp6p1FQlspZ0wn6UhaQ6xt38673X9MK7/iljmtmKNjhq9s++zDGIo1regh6p8Pjy/VWWggx2SRFgEurL8Y4ZOdYrcatuGYtBSm9nPVtO8wHjXZcGTn+G/KQnX3e1kZjN33M4icBSQ4ZLK7ROLGessPIW5xB3yl/62Ogtj3oRh+rTKxF6Xxvb+Wgd1XjHznRm8L8x5VklI2L06H3smf7VT65PASp96O+38+eCYOhmqIRr1kYQ3ZOe34kuOwnNVqsw9j3eK/LYbouD2OYX0gaOq+Zqm4Dn17ClZKq+aNh8A6kPjhy/eFn8snOltabEJNdUnRRpqVOg8EbobsFhwZ1dxmO0FHJa5mtWMt6sJYxsgsy5rKr+EkqGL3l+gxzM9a6BvnbwNWQ264ODkHBfDbyMQfJZMX8FL6//DnqobbUkROCT4iBgZswH/ReM9flc/6/SUclr3Vol3vjFsyPS3NZCDERkiLADQwOQ2qYHTy/4P3jO6nK2I5ejauweFoceQd62HyyyR/kRlm21vhQvNyflgl4g1wmc1OBQeXTmYFbvEw65ba9lAMMdfFKbWBAHLwT/rKOl7S0WTDYzQCQS/yu2eyZMPjl6MsRQkyMpOiiHPj0Eq6McjZodSM2dtNHBst8z6BVsbooI0TXmI5zDQ7HqWyl681Y1hq+O7PyCA6nE6fjSBTPbildjj8uWMVG76qaVTyS0s9HtVfxdmF+fcozPmfagmntOwQnSt64BamxtnBSZ3u6BXezwZssEpPdrCyYRt+Xu9B9zfRWcToMfj1yfdU7DpxOJ22/j8NJhBBjJilacHRU8hpNbN+p6rrydSXu4i0TbLDtwGrboWzrPYFFa7xOQ3AGpZK15+2ijFR2UIZlhrKfN+NwoDafffUONtt6KPXuozsL8wkabavwDSFlvIDN5s+CPFNbC/X1vOxtoTHEF3tqfWNulo5+bGV7sam7+oa6eEUV6CxfQnkpWAGLrqulGKhtxH5yB5ttPcAw9lN2DGXRtAWnUbCzh4Kdyid1i21010ylGjLuwAmNxx8O3xhk55IUMnKi/eZCiPGma+pvp9M5YdOOT+S5k3PJdFtP7nU31oxc11KfGbDvkXdxO+omur7xX468i7utOsT2yiNuh9Ppbvv9xNdTFllkCb0kRReliFY696QErSp6lPkpIxNTnj0ELIEjCZROb90HBbeg5FDwliqOOJw4Xy5g8GQ2Jb+diNoJIfT6EUqki8jpdJKdnT3G1Zl8505aNb/BVpYesCr4QXCfauWh6D2/ToDXdS0HRzU0JsJ3ESLJSYATQgiRkKSLUgghREKSACeEECIhSYATQgiRkCTAiUmpsHgdLRXpkXccIZ0Gi4nKUJvTcjj6Qg6FGuc7WjwjpvNUVlTTkBNDVYUQYyo5HvQWk9AMdr2wjlzf+yxv0/X2cXZHeho7x0TLz7/j9Te7OTfGNfSbwa4XnoBTOuoXLC2Ho+vzuVu97o5jnOsvRHKSADfB8g70UOqZcy14nrnRUs/nFjCPW7yNeEzAE7z+bqP0GDRYTNzXeZyn2297DlC2z7t6nFLvurQcjq5fxy49QS5IZUU1awIae/18FXY7bLXksxXwBtaxCDaFxevYmgddbx8K+E6FxevYasmkcMR3Tfdfq6/SObo+n2/bDrGt279H22noXinvTxFCDwlwE6zz+Xl04pmIM85lH3x+CwdRAt2TcS7bZzk4SsH+hyieG8vJJxcHr/sCHjDQzaHOTKoXzoCB26GP1dB07BD+mWvSabA8GGa7tsKFUZ1Sh3TW5KHZKj3XfhxYx9Zl6XCsP6pST1yAne9CrzynJ0REEuDEqBypBi4oM2D73ebG32HeLRcArjvAzeiCFgDpJlosQL+N0jCBIFILTns/nV2iABgwTJ8B9wH3mWgp8RaifR4A0mZwHy6+ClH+uZsutmbOoBBUrUeX/1oN3OZbbuP6NvC4w3WQsQ9q6pR/CyFCS6IAF/Ri44AX8IbZVtOKdXE3+waLfS9VDu5KDH7hcuB0LeHOG1lg2b20mFbFNMuBluX19bxc4H8nV/CbStRdnF4BXZ3VUADs0bjRqltNu98MeudVt4Oun6+jurifc6ouyuo86HlbFQgjBDatc2m14MAT3LBRau33nU93l2jaDO4DmDUD2m2Udoc+j8/Abb4lk9kBcyX5Fc4ywN+/Duoava26Vv1ss2p/d8tJeOKlEC+5rjyC4+UCuLCH/GekjSeSW5IEOCXIGOyvaswSUMXqk+ptVaw+uYPNB3Zj8c5InVHOZk5gMe1SAl7ZWvI4rASaoiYqCm7SYsrXCDw6yg6nppXNqrLT6h1sPtnEQLRvxtcs+ze8XHCLEybPDAI1v8FWVo/1ai2WDuVzeUY/J0x/5CCZWE++wCODrQHjeNbFMNQTS1fZbXa/eZxdL6yjJc+/TneLanq+agxNpV8Z8xspnYXp/byvDhgaXaJ353nqExRYCxdm8m2bDX6eTmG73uSQft7vzGerRhD1j81F1z3pcwYuV0NONTDifZlCCK+kCHBp9cUYh+zs00rgqFlLQUovLb5th/mgsZDsnTnkgRK0huzs8wakxm76yor5SRHgmwk6g8U10Bn8nkY9ZYeRtziDvlPzfPsN1LbTZysmtwgGQsxCrY8y39v39jc90+MAjX/kxOK9PPl4JnRcZePidOht9U2f88nlIR6Zfz/LwTddzugmBL09smWnR7e3BRVKLI8WKH4ISITxSMuhOvMqh9r7MT5UzZqcbs6FPb/fufbjGGdWs2Z9NS1B2/raDkWfkakScrbxpmfJjzTgKESSSI4AlzoNBm+EbvUMDcbeIuqo5LXMVqxlnrnmgrsgYy67ip+kgrFMNYcdAMPcjLWuQYJnBlC7OjgEBfPZyMccJJMV81P4/vLnAZOepk4Pefg4CH7MwOOOg9ettqBWVj9f9ZtYU5FO0zF/F+WILlGtc5Rl0nNKybI8d8xGg2Udu76NLtMzOHBWVlQz2pyW3kFImQzTqQsxiSVFgBsYHIZwN4OUVAKGSjJTo5thunEVFk/rLe9AD5tPNvmD3CjLDhzPi6/70zIBb5DLZG4qMKh8OjNwi5dJp9w7IepQF68EPWYweCf8ZY2ksqKaolsaraaI/On0pUHHKin492K02gIyJ5uOHYKKaiVpBdDTJVpZoTzK8LRvn362tT1Iy7J00OwKHT8ZqTA0OLF1EGKyS44A9+klXDvL2VCza2SwaOymr6ycZfVVdHrHyYoycNlfjSmZIyCYjqrsw3RdrmFzWSt5jWESSzxJBSlDdvbkP6tzPMzT5Viwio380TMGt4pHUvo5UXsVbxdmyOlxPEJ2k8XBufYwz6blPIjxTtBjBr7jPqYw8wnN5A49jwtE3L/bn2SiTaNlma4ea/Suq6alRPmnZtdoBCG7h73/PfSdIHulPC0nkltSBDg6KnmNJrbvVHX3+boSd/GWCTbYdmC17VC29Z7QSEbRFpxBqWQ6ersoI5UdlGGZoeznzdIcqM1nX72DzbYeSr376M7CfIJG2yp8eX4ZL2Cz+bMgz9TWQn09L3tbaAzxxZ5a35ibpaMfW9lebOru0aEuXln7jq+b0vIllJeGyOYbS91f01diCszC9CgsfoLc6S7eH3UWTqxiHFuMxnKYPx0+1jpN0w0GX4YUY874/12EmGRkPjihQcmavKdD3YJT1s2/HPhGlCPvwvweyI/hmSytN4wE6uf9oK5GvzBjcDG8BquweB3VfBxFS0p5TOArqw0qqln4l8A3jowl6z54YjDUNa/iiGMnBd9JC04IUAJcxMXpdOrabyyWiTx3ci5PuBtte92NNap1Rc+4W4LXgZvluB2ncR9ZPtF1To6lqg63813cVVrb3nG4nU6n23naOuH1lEWWybBIC05oq/kNtrLA5lXIMbkR76IUY0XeRSmEfhLghBBCJCSZD04IIURCkgAnhBAiIUmAE0IIkZAkwE16syluKCE3K/ojDeYSzOaUkNuNW8wUr9A631L/s3nRnCdrAea6BdG9BUYIIcZIcjzoPdmtWMqmkjn+z9fOs3/vjQgHpZBbt4p7zzfT/smY1i7QiqVsevivOuo3knGLmSfnBq7rbRvn+gshkkZyBrgVS9n0mIvmuku4NDYbt5hZcrOV5uah8alLCXy0rZk+1fk3bdET5IJkLcC8cVFAC8rVGX47c81s8rwySgms0X4BPWZT3PAYGdfOs3/bjaD1ZjY9HMN3FUKICJIwwKWQ+9gces9/phncyFrAkrnXubB3HIKbty5t/uAG0Lf3PL0NP8PIjYD1EV25RPO2S76PBnMJT4bZrm12NGfUxWBepAS3EUHsBu3bzlPcsIjcrBt0XYn7qYUQSSz5AlzWHLK4yEchusUMuQ9A52fRBZYxN50lG80s4Q4XDraFDgSRWnCh9tPVJaowzEoBw3QMDGGsW8WSaWHO4ztmOq6boX4wDPHd8HTunQNIgBNCxFHSBTjjykXgbNVuvTGbR/LgysHxaL0BDNF1/jqbSpZi/OQzVRel0p3X7tsvQmDzitSCA09we4ArB5t95UXTJWqYNR2mGTBwia66ZrpCnUfFdfOOEhjRuq4p3DvtDt9dj3hqIYSISnIFuAjdj0pX2kXax7Ml8cln7GcpmxrM/nVRtKgySlRjaD5KQNRqhXpbqOpgObJLdA5PNpgZGVhnk2m4yEedD5C5Avp0Joe4mi/S2/CYRhD1j82N6zUXQiSFpApwhtwHMFy7GKL7MQVj9nR6z09AssMnn7E/6kzCIV8LKhRDbqwVus5H20Z20xq3PAbnm+m7DksqFmD4RDtJZ6QbtB+8iHnjY2xqCNo0fJFmSTARQoyBJApwSvfjhYMhbqYrFrGEizRPxZT14McMPHrbmkd8H1fXN7BxKbldbaouyuAuUdJshYkAACAASURBVO1zPMl5TyC+xEfOEsxb7kSZ/RgUOLMWYK6I4nAhhIhC8gS4FT8jY/gbvgjRFWZ8eA4u50WdLZI4y1qAeaOBCxqtpkgM5hLMeUMBjxkolBR886ygxx2uXKL5IJg3mlniXRepSzRrAeYS+EiV4u9q/owLdUvJzYoy01MIIcZJkgS4yfRoQLRu0L4tVPDxdKu2aY233aC97TqbHtZI7tD1uEDw/sErh+iqawPCdIVqtCyfVI81epgbFnn+pd01KoQQsUiOAJc1h6xp17kQ5tGA0GNzk9kQfc47LAnKwlTMprhkDq7OixNUN2IcWxRCiPhIigBnXLkIOltDBLAIY3PjZo5m68bL1an9ZhVXcxv7bwZlYXpojcEJIUSykAlPhRBCJCSZTUAIIURCkgAnhBAiIUmAE0IIkZAkwAkhhEhIEuCEEEIkJAlwYhRmsOuFdexKi+W4ahpyxqJO4yXW7w6k5XD0hRwKx+W4UdRTiCkuKZ6DE6OQY6KlJN3z4TZdbx9n90D4QyorqlmTPnJ9X9shtnVHe06vft632mjScfhI6TRYTBhDbh/5vQqL17E1b4bm3nq+R+A10H/dFv5F5zXySsvh6Pp87h6xYTTXS4jEIAEuTvIO9FCaMYx9Tz4fdEx0bfRQftnn/t1G6TFosJi4r/M4T7ff9u+SY6KlBN63HlJulDkmWtabqIxw42w6dihoezoNlgf5SseNWwksLv85vdJyOGpZx2wdgWKkfrZZD4XYNoNdLzwxYu259uOca/fXqZqPA69NGJUV1azBRqm131/39evYFVPddbjj4PU3uzkXtwJ1/LchxBQgXZQeeQd62F5fNdHVmERmsOvn6fS1qYJZt433+9MpKtZu2YRSWJyPsf9rXa0J48wZgef0Guimo38G8xZGd+7xl87C9H7eP9bvXzXQzaFOyF2m0awVQowZacHFSefz8+ic6EpE5TY3/g7zbimvn3bdAW6qf6EbMEzvH9HqavpLP2seMgA6f82n5VCd5+J9a/+IrkutV6f13brNmhITld22ES24ovTb9Jwd/1aEceYMuDXup51Akf7bEGJqSJoAl1bvYHPBNN/nvlPzeKsxaH3GDqy2Hcq/e09geX4XFDWxfWcqZ03dLLaVK+M4Q3b2ra1kADzbCzAoB9FiWqUKdFWsPlkDje3M2uk5NnifgOO9gssZG+quxN1vhurC03DPDAohcpdYWg5H12fS8/Zx5Ty+8yldYAaNQ861H+fcTRMtlmrWBGzp533r8ejGlEKOT2lYX02L5lhZOgvT4e570ilsD+4GnEHu+mpagB98XXj9fNVvYk1FOk3H/F2U1XnQ9XY/E0OrnuHp+W/DetpJubGXE9klWOJXWSHiJjkCXFETFQU3aTHljwgaA7X5WFC6KJcNvsprtYc1Csig1DYL+555vNWxmw22clbWwFuNQEclr3XgC4QjTaNgZ7Hn2CpWn9zBsvoqOmsPA1WsrikA+6tYag9DTSvWslnY94x9cBuVv9+OGNyU1loMQQmg20ZpNIkWoQx087R1dAUp3as23sfEmpxuzgUUp5080nTsEFRU02IJv9/4mejzCzExkiPAAZDB4hrobIzt6L5T3uSRXXzZW86ytCpAKxiGO/YwXZdrKEj15PMVFZKdMozzU085jd30lZUzKxOImKiygX/7sHRkZuBQJ69V1HFWV83CceG6k87CHEB1U698KJ0fbjlCH+bJgOxrO0TpMb3n8iQ1TNdfO70tEUX0WZRAQPdqU5qDo+s1uk5DGJloozLQzdNv6qz6JGZZmS0tNzGpJUeA66jktcxWrGU9WMsI7GLUpZcvVYExbuNtHTdw7Swg+/EqPug4DDU5GOmlRVcQfot/eeqteNQihNvs/nM/LerxsByT0io7FiawhGh9FRavY+tMB6XHtLrpbkfXRRq16LMoIZ2G9fl82+YJVAPdHOpcx9YXcujTk7GYY6Ll599pZzem5XC0DA5pbDOWVNNSolHeHQevn4p0UiGEWnIEOIDGVVg8gSPvQA+bTzZFGeTGQh83h8BY4B/76zulN3iOdQsOJVihHg+L9dmqGRRmzoDpD1JJP01hAlpMz4JFpKMFF1TfXS+YIOh5t3Ptx4F1bK24zbljmnPDj0rYVh8oLUqt9dPz2WrJZ2vw+jsOXn9zosb9hJh4yRPgVAYGhyF15DrD/ELSODx+Qa9mLQXY2WeKJdCOdQvOIw7jYZUVnmeq/vwgLXpbQHEXTXAOHYDPtR/31F3H4wqhAg/AnTDdvNGIOM44I/SbT7xJODE+R6ckmQxhfyWfZ+WJcjEJJUWAC86gVLIUA4PKQG0j9pM72Gzr8eziyaKMsuxSWw+lerMgG09iL1Kd08Ob4TnleW+g/TZP12S/v0Wo960mU1mowOHpopzqegeHwJjC/OVV0KRvPFqI8ZQUAc6bKRneYT5Ye5gPgld7syRjKlspM+T+Wi24mlasZa3kNU7yTMqwvF2C/SPfSOJpEVZWVNNSop3cEXIcCsAXLKOv05oRjx74RZe0otN4tOBGY5RZpodvDLJzCVw+I8FNTF5uPYvT6dS131gsE3nusVzS6h1u68kmd5pqXd6BnhHrZJFlci1Wd5vT6XY6He4jlRNdF1lkCb38yPOPiJxOJ9nZ2Xp2jbuJPPfYUp6LK0hRrYo6w1MIIYSWpOiinLxCdIsKIYQYNXnZshBCiIQkAU4IIURCkgAnhBAiIUmAE0IIkZAkwAkhhEhIEuAmWN6BHqw2ZYn3jOIbD+zFZlOWlvrMuJYdoBqc78K4zode1MR2Ww/WA7vjW+5ycIz3dxFCjAkJcBOs8/l5WEzzaOmNf9kHn9+CybSFE2NQts9ycJSC/ZDeyYM8alqxnmwibazqFasz8PEt2LlvoisihBgteQ5OjMqRauACPHtmnE8c4RVqo2HZDLPfhbZqKBnLWXyEEGMqiQKcMhO3b8qUgDeGhNlW04p1cTf7Bot9L1V22QNn/g5+4XLgy5LDnTeywLJ1vsRZp+X19byseo3K16e2UKN6yfPGA3spzwg85nv7m5TWXlU+VEMBsKdOo/CaVqxl/oN916yoie07CzAAkKF60bT/u3lnVz9Gje+7q69p3oEeSjOCyvVIq3dQQSNnU3f49gn79wBgGPse76S0imfPgHM5VGm0TKvecbBzCfIWfSGmAF3v9Jra76Lc7d5g63Fvr6/S2FblXn1SvU35bD2wW/lc0+q22oI/t7rzvMcXNbm3qz9HU7ZqyTugUb+gc2m9u1LPsvHAXndLfWZQ2b9x22y/cW8M+FzvthZpbc90W0/uddsOPBFQhnUfbkddqOvtcK8uClOvmtaQ3yXvQE/ANQ/1vbWuWVq9w21V/a2Dj807oLr+RU3u7bYe94Ya7Tq2ncZ9ZPnI9VXvOOQ9jLLIMgWWpBiDS6svxjhk51itxihRzVoKUno569t2mA8a7bgycsjz7jNkZ5936pzGbvqYxU+K1IVksLhG48R6yg4jb3EGfaf8LbaB2nb6UhaQWxT2MB0ysRal8729lYPeVY1/5ERvCvMfV5JRNi5Oh97Lnu1X+eTyEKTez3JVKbNnwmDIpug0sh8fRaqG6poPfHoJV0qq/vG63hO+Vl3gsbtZnAF9X3r+lh3ncA6BIU27noN3IPXBkesPP5NPdra03oSY7JIjwKVOg8EbobsFhwZjf7lxRyWvnerFWObJhgxOnIi57Cp+koq/XFsP1hFda6Pzt4GrIbddHRyCjPlsBCCTFfNT+P7y56iH2lKnhzp6F2/tsUPBDk+9W3UFdDXX5XP+69ZRyWtx6Zr1zKC+2JN5WVRIdsowzk+102Nu3ILUSZcFI4TQKynG4LRm8A7g+YXvu6FmpnrGiHRqXIVFNT60+WSTf5xtlGWP5eSn96dlAt4gl8ncVGBQ+XRm4BYvk065bS/lAENdvFIbGBAH74S5rKokkLR6B5ttrRDH8cPYHOb/DO6AjHKstnJAGcP7IESyyuyZMPjlOFZPCBFXSdGCG/j0Eq6McjZodSM2dtNHBst8z6BVsbooA5f9ZEw344HB4TiVfZiuy8MYyyK0fiqP4HA6cTqORPHsltLl+OOCVZ4WGlCzikdS+vmo9ireLsyvTymPGZhMWzCtfYfgREm9LZyBgZsaVRjEFZfu1igUNbEso5cWk/JohsU0LyBBJVjqdBj8euT6qnccOJ1O2n4/hnUVQoxaUrTg6KjkNZrYvrMHa5lnnS+bcRdvmWCDbQdW2w5lW+8JLGFufGrBGZRKNqA3SzJS2UEZfRnKft7MwIHafPbVO9hs66HUu4/uLMwnaLStwjeElPECNps/C/JMbS3U1/Oyt4XGEF/sqfWNuVk6+rGV7cVWpipyqItXVIHO8iWUl4IVAmc1D8qg9GYpBgT1jkqOPe5g884eCnZ6r5ueFl74axZWRyVny3soVV9PRmZiAlANGXfghMbjD8pM1ilk5Iz45kKISUZXNsrUzqKUJbpFyZpsrBm5Ljgb88i7oTIpJ+GilfFa1OTerpHxeeRd3G3VIcqpPOJ2OJ3utt9Pgu8kiyyyhFySootSRCude1KCVhU9yvyUkYkpzx4ClsCR5Ux+GuOfaY8vwMBN/o9qHM66DwpuaT3kXcURhxPnywUMnsym5LdjXF8hxKj8CCXSReR0OsnOzh7j6ky+cyetmt9gK0sPWBX8ILhPtfJQ9J5fR/m6rgmgfkhcEdQ1uhwc1dA4Bb6LECI8CXBCCCESknRRCiGESEgS4IQQQiQkCXBCCCESkgQ4j7R6R4yTZ+5mQ7hXURU1sV1j3rO0ekeUE5z6z5N3oEf7ofVEk5bD0RdyKIzlOIuJyrGoU9TSabCsY1cMr/wqLF7H0eIZIbdXVlTTkKN1vui+u+88sV7vMaL9/cbouBwTLRXpkfcTU0pyPOgNQBWrT+7APzvMyClSNNW0Yi0ajGqKm9GrYvXJGmjUUb9gAdPReEQ5Rc94qqyoZo33vnLHwetvdnMu7BHKDXzkOzn7ed9qQ8/7jwPO6TvcRumxfl11HiHHREuJqkBdZc1g1wvrMPz5ENu6YzttTHJMtDz0dUzfVeu69bWNov5pORxdn8/d3s96rltaDkfL4FDE/04Caf7NgR86j/N0++0oShJTSZIEOCW4ZV9+1f8WkaImtu90ANEHEa1U8y/Dbkc175kSWLuiO6UuyltVwL5nXsB3Ut4F6dAX0ONGCUT3dR7n6a/SObo+n2+DboaVFdWswUaptd/3eWvFbc6Fvcn1s80a9ICa56YdObgpQSX37/5zehUWr6PlhRk6AmyQHBMtJfC+9ZDv/JUV1bRUxBAwg2/4wA+d4beTXk1Lieff/TZKj0V3Sn08Pyr6g69bOg2WaloeivW7ZtLz9iF2e355xXzddBpVMNaSY6KlxEDX28c5t3AdW/Ncun9kifGRHAGuZi0F2Nmnfh2T51VRFY9X8UFHdE88dT4/T/VKqd1ssOWE2a4t7fGoTqnDblYWoBnEfK/8Kt/NBx274n3i2KTlUJTez/uqG2bTMRsLLfnsSuv33fQim8Gun6fT92ebjn0NGKb38/6bI2+g59odrMnLpzCtm3PRnrvtUMBNTfkeD1JJf3Q3u4Funrb678CFxeuoDrNdW/y72QqL85XgNiLw9LPNaqMh6r8ZFC7MhM6PA46J7e8vRGjJEeD08r5lvvcEludDB4JILTjt/XR2iQJgZFbKNMgEMtXvddQ+DwBFszFwky9DlD8wcBPmzw6c2WBMuXDdAW7ehoHbfMttXN+qNt93L3f3B7e6+vmq38TC+/RXsrD4CaVF1h3cdanVCnDhupPOmop0mo4Ft+DyMd65yutjcnFmkLu+mhZu0/X28dA370gtuFD7RdG9WjjLAPfMoJAZFL6wjtzpYc7jYZw5gx9uuUJsdeG6MwNDFH+zhPHtd/wA3BiAc/e52HrnO/omuk4iQHIEuMaT2It2UFFf5X+pblETFQXg3KNqvUUIbF6RWnDgCW6cwGLa5Tuf7i7RotnKGFpaFdR6p+LRPo9Pxw1cOxcoE7FqlJ+WNgsGu8fxHnSb3W96uxL72WbV3+1036wZQORxkcLidWzNvMrrnhaZr+syLYej6+8NWafKimpagt+R3G+jVKNlF95tdv+5n5YSE5XdNlUXpdKdt021X9jA5hWpBQej7tozzpwB0+/FSLfv76N5HpW+W7e5e6YB7b+JAcP0oB8vOpz76irV659g11fHVd/D0w06UYEy3eT570LneO5AN09bPf/utlGq1biuPILj5QK4sIf8Z+TdOOMtOQIch/lgLXBS9Vb/aFpUKQWqMTSV3hNYntc6YDeLM3ppMamCpUaXqKHAU5+gwJr2+AJcp05AUSFpHNYZlHZx2l7MZo0g6h+bmyTdkxF8ezNScFONCUUdlKDp2KH4jZN02yjFRIulmjXedVG0qIwlqjE0HyUgao0Fhu7aU3eJprPGUs2aEYE1nYX3OHi/M5OFOYDO8ahz7Q7WWEwaQVT1d4g2KA108/TbcHR9NS3edaNJ9ImHiT6/iLskCXCgBLnDfBDtYarJTLXF8miBQnOalqImKuZf4ljtLtIW97CyBt0Tng7U5tNyoIdS3xQ0fn2n5kWZYLKBf/uwdGS24lAnr1XUcTaaorR8+x0/lASPU6WzMP02rjCFK9lw/bxvPaRqIUWglZwRls4Wl1eoX+8RzuFv4WorXBhtmV7aLZDKChP8+RBN38LRshwKu/Um1PSz7W0HR9ebRrZ87zh4PdagEGFMselY+OszJTQ9S75knUyYJApwoxX8mIHHkJ19plVBraxdfNnbQ+mB3XQ+7++iHNElqnWOmgU4G/MZAAaeP8Fim4PVV6PLfgwOnHkHelis/3CPt/iXp96K+ijdBrrp6K8OGA/T00Wl3fqKkHKvKzljAgU/ZuDR13aIp4OqHa5rL2zAzzEpGavdAN0curpOR8ZqsKDA6UnZj134v1tlRTUL/6KxbXo+Wy35bNUosa/tEF+NpkoioSRVgMs70MOyQR0TY46gTLJpsL86YiJUJQW/dcRknZ3Pz4MDPUrSCqCnSzTvgPIow2u+fXbx1qkcrOW7xzG932uMW3B4fqGrx8Ni7SJKS2fedLj7oXTo7g8cGwmQToPlQb6Kdyq3Z8yvI4ZyC4u96eXBgVtJwT86K+g5rVi69tJyOFpCQMbqufaPKXzhCXal9Uf3WMRE0/FjpfIh7fXa3cGexwfiUDUx+SRVgAtnoDY/9NzMNTkYh4IeM/Ad14j9ZI1mcoeexwUi7t+4ylOvUF2hGi3LDPVYo3edfzZzXbNfj3ULzmP042HpNHiesfvqoWqOFk+2B3fDJdjMoDBzBn1txzWuQT/b2vppeUgjuSPaFqlmwL/N7jePA2G6QjValmvUY40e/taU/oft1UIFHoC+v0RZWAgR/zsLk7/lfUg8pufoPEkmKX0nyF4ps7+PNwlwejR201dWHpiF6ZFWX0NByk1axr2F5RXj2GICUFo/M/w3nm5vizC2G+34u825q7fZGpSFqUinoSSdHzodE1Q3YhxbjF6owFFZUU3Mw5CTRdMNBl+GFGMOVgj9I1qMiaQLcL7MRU29I7oaFbt4y9TH6pMaxw7Z2WeanK/BSljelsWIN2t4f6l73rCh+eqvdM1WiFfsb7sIX26oV0Kdaz/OuZtBWZiqugSPwSWi8WjBjcboehl6GRyCjO+6JbhNAJnwVAghxkDVOw52LkkB6Z6cMEnXghNCiPFw+Jl85NHuiSXT5QghhEhIEuCEEEIkJAlwQgghEpIEOCGEEAlJApyYGDWtWE82kRb1gVWsPulgdVGo7bvZYGslT+t8B6J5b6j/PGn1DrbXV0VdUyHExJIsSjFmgufN6zs1L/KLo4ua2L4zlbOazyOOnbwDPSz+Ukf9RlBe4xb4SrNQz1MKIcaTBLgJpg4C+l6hpd/GA3sp95T9vf1NSmuvxq3sANXgXA57fo0vLXrEfHjsZoOthw1EH0SU6X6mqdYMYw+7HYy2Hko9/+47NY8xeelYjTIZbd+peYEzTtS0YrX1sFgjoFfVQQ2QXzcWFRJCqEmAm2De90/mHehhWZzLPvj8Fg6iBLon41y2z3JwlIL9D/7gRlETy4Lnw/O+OHrxbiC6eekC3xNaxeqTNWG2h1ATaYdoVbG6KEO7Vdq4CgutWIuaSGsMfMvN4TooPw1t1VCSALPBCDGZSYATo3KkGrgAz56J4WDvRLJDdvatDf26s0gtuFD76eoSBaCKn6SCIa0KigrZvrNAmVE9xHkURmalDHMzVKP46iCuslTSYMT3KvkDOF4C6yF5N6EQYymJAlzQWEnATTXMtppWrIu72TdY7Lt5Bnclhr+xhjtvZIFlx3dsZ3l9PS+rpiH4+tQWalQBQd3F6RXQ1VkNBcCe4O62jkrOlgfNh8duNpRl0HdqlX8/ndciUgsOPNdp/iXVe0Gj6RI1MisFDKlG6Kj0TFekfR6/Pm4OTWNWJiNmkQAgMxXD0KD2dzsDH6+FJ+rAotFVaT3tpNzYy4nsEgmAQoxCkmRRquZzM81TFt+NtYrVJ9XbXsVOAZvVGXcZ5WxObVe2n+rFULDWn6VX1ERFwU1avOWa1DdUHWWHU9PKZlXZ++yzKI0p81Cr7N/wcsEtTpi2YDJtwXSqnwfL6rEW+beXZ/R7tr/JF0NAb2vAOJ51MQz1oPk6os7n59FCOVZbj2cpB90tqgxKfceplpDfvYrc+WAP6A7cxVunejEuDvw7apZTk4PBfgJ7as7I7MuQDvNBRy/Gsh42BMdB79hcR+jgbfkSUuaB5GYKMXaSogWXVl8ccj43atZSkNJLi2/bYT5oLCR7p3Kz6wSlpeFtiTR201dWHDT/WwaLa6Az+Oatp+ww8hYrYzze/QZq2+mzFZNbBAOjmp4nE2tROt/b3+Sgd1XjHzmxeC9PPp4JHVfZuDgdels926/yyeUhHpl/P8sBb2/k7Jkw+GXos0Q7Hx6gakGFUkVutGV69Z7A8nzw+N9uNpTBWdMuBuodVNRX0ak30adxFfvSHGwu88+15+Wyvxo+mH8NQ6WQobHJsjJbWm5CxEFyBLjUaTB4I3RXWKiuJD06KnktsxWr9yYX3O0Wc9nKuJBxxM1zmJux1jXI3wZCZ1VeHRyCgvls5GMOksmK+Sl8f/lz1ENtqdPjVJEQgh8zUPTSYsoPCpyH6bpcw+aaJro6VF2UwV2imudQWpadALWNOE/uYEPN4egyPYMCZ1q9g4pIx5yBwZdgtvoXgxAirpIiwA0MDkNqmB1SgpIBMlM9SQY6Na7ypYnnHehh88kmf5AbZdn6EyWid39aJuANcpnMTQUGlU9nBm7xMumU2/ZSDjDUxStBjxkM3gl/WdPqHUrX7ohWUySeWcoH1Y8ZeNS0YrU5+MmefD5QtfQGavPZV+9QklY8Il27tHqH8iiDbx+lhb29pom0xnOhD4yH5cq165bgJsSYSY4A9+klXDvL2VCzSyOlW5mte5mva0pJ/3bZX40pmSMgmI6qbE+rpKyVvMYwiSWVR3C8XEDKkJ09+c/qnJ7D0+VYsIqN/FHphqxZxSMp/ZyovYq3CzM46STYjVswP9YBQdWPghGKCslO6aVlrUZgbFxFy+IeFmskd+h6XCDS/qokk1BdoSNbluXKGGMA1eS4Wl2jD0LKHejVKF9JMhnC/ko+z07+acmFmLSSIsDRUclrNLF9p6q7z9eVuIu3TLDBFnRD0jkOMzKFvZcWXyZfpLKDMiwzlP28WZrqVon3oWX9WZhP0GhbxYO+sl/AZvNnQZ6prYX6el72ttAY4os9tb4xN0tHP7ayvdjU3aNDXbyy9h1fj5rlSygvBStxTnfvOIezZkdQFqZHTSulGcPYT8TzhNGJaWwxSLgEnd7BITCmMH95FTTJjGJCxEpm9BYaMrGefIF7OtQtOGXd/MuBb0Q58i7M79F+M4fWG0YCDWMP6mpUCz0GF8OjEp7HPfR3l3oeE2jMp+txBxU0xu8tM8uV5+A+Xhnih8Hv23CuTZUWnBBx4NazOJ1OXfuNxTKR507O5Ql3o22vu7FGta7oGXdL8Dpwsxy34zTuI8snus5TZ2k7jbutWmub1d3mdLqdTof7SOXE11MWWab6Ii04oa3mN9jK0gNWhRyT03gXpdAm76IUYvxIgBNCCJGQkuRNJkIIIZKNBDghhBAJSQKcEEKIhCQBTq+0HI6+kENhLMdZTFSORZ3GS46Jlor0yPtpqKyopiFnnI4bRT2FEIknOR701qmyopo13vvjHQevv9lN+Bc2pdNgMfkf1Pbp532rjfCPMIU6NpoyRiosXsfWvBmhd+i3UXqsX1899FyDtByOrs/n7pDlhzimDA5FvL6BAv4+Kj90Hufp9ttRlCSESAbJEeByTLSUpIe9+VZWVLMGG6XWft/nrRW3ORf2Zt3PNmvQtMw5Jloe+lpnYIotiEUS6oZfWLyOrTNH1sH/HdJpsDzIV3rrlJbD0fWZ9Lx9iN2eV6tUVlTTUqEjyMWor+0Q27rjWKCO/zaEEFNTcnRRdtsotR6n654QXVhpORSl9/O+6gbXdMxGX3o+u6J61+IMdv08nb6/JMeNsnBhJnR+7AtuEOt1m0CR/tsQQkxZydGCA+A2u988pL3pvnu5uz+41dXPV/0mFt4Heue7KSx+gty/2yjtDu72myIBL20G9wFfTXQ9xl2Y/zaEEFNWEgW42Nw3awYQeXynsHgdWzOv8vqbSjDzdful5XB0/b1jWMOR7s5bR0uoqanDxNrChZnczQwW5gDB3YDpJlosSgHebtVzX12lev0T7PrquKqL0oSx30ZpzBPsjZJGPUfPSpuznIy+E2SvlKlIhZgqJMBF8O3NSMHN01rrt1H6ZrQttXTWWKpZE2JrLONN59qPc649ymp465IHXW0O5v08h8LuoAQQrTGqgW6efhuOrq+mJdx+bsu3/AAAIABJREFU42mizy+EmDQkwAF8+x0/lDxIJf2qX/zpLEy/jets6MOUrL5+3rceYlvUJw1MUCksXkc1H8ecDRgqwzD06QMDQWWFifs6j7Ot+zaVD1VTXdzPOT11GejmaWvoKNx0LBG6/iyUZEvLTYipRgIcwEA3Hf3VrKlIp+mYN4sycldb07FDGl1gM9j1wjoMf45ztl8E2nXRlxVZWLyONfc4eP3YbU9ZNhZa1tFwU893CP99KyuqWfgXjW3T89lqyWerRol9bYeScBxQCBFvEuA8mo4dgopqz/gNsXd1paUzbzrc/VA6dPd7WjhxrWpYIQNKKDkmz9ihukuyn21WGw2Wdez69ji7413JCK0+gMqHtNcbS6ppKRm5vq8tlla0ECKRSYBT0W4FRSOdhvX5fNt2iK8equZoscbzaMEPRgfQSg65TdfbxwNS8eOq20apZqzpZ5vnmUDui1xMqMAD0PeXWCsXKOLfJ8ybT7xduLE9R+dJMhmysyf/WZkSSIgpQgJcnHjfIOK7gXZ7W4RB2Xw6Wi/xowpSYyxU4KisqGbhuNRgLPUyOAQZKfN5vBIOyyzbQkwJEuBGS/0mjKBgorQ40mmwVNOi69Vf8RGuNaXvFWTxPWe8WnCjMbrW+WFufLcTuMynEtyEmDJkwlMhwvl9G861GSDdk0JMOdKCEyKc35aQ/duJroQQIhbJ8S5KIYQQSUcCnBBCiIQkAU4IIURCkgAnhBAiIUmAE0IIkZAkwAkhhEhISRHg0uodWA/E/Y2KiqImttt6sNp6sNpaCTUNmxBCiPGVFAFuTHVU8pppHpY9dlwTcPqZ69t49KlfTMCZhRBicpMAJ4QQIiEl1ZtM8g70UJqh/Lvv1DzeavRu2c0GWzlG78chO/vWVuJ9gX9avYPNBdN85QQeOzHueuo9lj3qmZPgwZdY+ehLyr+/PsXpt/8E/IIHtr/Ejz8t4W8Pt/HIgwA/cHn/r/jmv4H8N1j5+N85+9q/8g8AnmOBtZjvvduDz0EvX1he5FZALTxv2e87QfZKmRBUCDG5JE8LLqOcZYOvYjHNw3KqF2OZd7ysitUnyzHYPdtMr2KngM3eMbuaVjYX3KTFNE91rIPVRRP4XYB/fPgrTltK+OJruP35HzhtKVGWt/8UsN/cX7aRNfgHz753M/+J5/SdIP8Nlj36N77wlHv28/t5ZPvvuGsMvosQQoyF5GnB9Z7gtVrPq3Ibu+krK2dxDXSyloKUXlq82zjMB42FZO/MIY8qflKUgcv+Kp3echpX0bK4h2WPV/FBxyhfvbu8jn//n3kj54bra+Gpf3lrdGV7fX2Kzz/8TwBu/VcvPD6Hu8DTagtt5sMZXPuPEl+L7R8ftnPt0WJm/RRfCw8slGRLy00IMTklT4AL0MfNIZjl/Tg0SLj5RF0DY/QO+TN1/POZsSna69p/qVp0jhc57dBz1C/48Uyl9Tf3l+r1P3A5vtUTQogxk6QBzsislGFuXgUygZRU0sAf5DJTMaj2NqRVgW+ilCp+kgoMxqEa49GCG4Vr/1HCJV0BUQghJp/kGYNTSasvxjh0ia4OlO5KMlhWX+XZWsXqogxc9pN0cpiuy8MYCtb6n2+rUbo0z9bGoVV3po5/fuopngpeoghu/3fwB2bMWxbb2JjhHv4JUBJSypjr2/Cf3Oz5gbm/fIOZYQuw0uZ04nQcoSrsfkIIMf6SYsLT4CzI4CzJEVmUvSewPL8rxPHD2Pfk80FHiLKVAmgxrfKP240pJVtyvrfJqZFFGaoVNnO9N7sSrv3HKfhluCxKwOVQZV0CVHHEsZOClCHsr+TzrMx2LYSYZNx6FqfTqWu/sVgm8tyyhF+sp51up+OIu2oS1EUWWWSRRb0k6RicGLXft+FcmwFDdvbkP8sYpeEIIUTMJMCJ2Py2hOzfTnQlhBAitKRMMhFCCJH4JMAJIYRISBLghBBCJCQJcEIIIRKSBDghhBAJSQKcEEKIhJScAW7FUjbVLQh436SacYsZszlFV1EGcwmbtsyOX93UshZgbjCzqcHMpoal/jetCCGEiCgJA1wKuY/Noff8JVxam7MWsGTudS40D413xUa6conmbc3sP3hRu65CCCFCSr4AlzWHLC7yxSfamw25D0DnRfrGt1ZCCCHiLOneZGJcuQicrSFaRLN5JA+uHIy+9WbcYuZJz+v4e9uaafcF0NkUNzxGhvfj8EWa61Stx6wFmDcu8neXXjvP/r03dJ41hdy6VSzxvut5xLFB51ZvX7GUTQ//leabizDnTQfA1dlK82RouQohRJzoemllQrxsOWuB29yw1G0Msd1gLnFv2jI7qjIN5hL3pgaz22xOUdatWOre5DtHiju3TrXN89l/jtnu4gazu3gFAZ/9+4evt3GLuqzgc+E2blEfE3SuFUvdmxpUxwfUWxZZZJFl6i9J1UVpyH0Aw7W/huh+TMGYPZ3e/9LbelK5dt7f8vnkr/Qyh8wVwIpFLJmmHs8bouvYRVxzf4YRMJgXkTGs7i69QXvbdQzZc0ImwPjNJnPudT7ytdiG6DofeGzf3s9U3/UGV6/BPbNUyTPDF2n2Hv/JX+klBUNW9F9fCCEmoyTqolS6Hy8cDBHAVixiCRdpDjE2p98Q3w3Dvd6Pw67wCSKuO7ElkGRN5x7m8GSDOXD9sKq0FUvZVDIn8HQ3YzmZEEJMPckT4Fb8jIzhb/jiivZm48NzcDnjka2Ywr3T7vDddWAOMM2AAfzlzjEEts4M0zFww7fdMCtFvXcE1/lo22faLdKsBZhL5gSMBxq3mFkS3ZcRQogpK0m6KMfv0QCl2/Eb+q7g665c4numTqmHy5Ol6er6Bte0RTyywnv0bB7Jmx66nmpXrnNleA5Phn0GzxNoAVYs9SXBCCFEMkiOFlzWHLKmXedCmEcDDNdG8WjA3MfY1OD5d0CW5A3at52nuGEVm/I826+dZ783kF65RPNBMG80s6lEWeXqbPV1kxrMJb4MR8DTHelttQ3RVdcKdav850aVCXnlEheuLeLJjZ5W2/BFLlybgwyxCSGSia5slKmcRWncopGZ6Ftmu4sbSty5WROf8SOLLLLIIkv8lh95/hGR0+kkOztbz65xN5HnFkIIMTUlyRicEEKIZCMBTgghREKSACeEECIhSYATQgiRkCTACSGESEgS4IQQQiQkCXBCCCESkgS4aBU1sd3WSl7kPaeWn/6OR61vMDPa4/LfYKW1zbO8xwM/9W+666n3WGltY0F+PCsa7Bc8sH2szyGEmIqS41VdYow8x4JfZnDtP0q45JjougghRCAJcCJ2P51DCr1cCRHc/vHhrzj94fhWSQghvJIiwKXVO9ic2o7l+V3KiqImtu9M5axpFZ1UsfpkDTS2M2tnOUYAemkxraLTW0BNK9ayDFWJvSPLL5jm2xZw7Jj5BQ9sf4kff+pvPd311HssS23n9Nt/Ap5jgXUxf9v/d7I25TMDwOXg7Gv/yj+8ReS/wcpfhv5edz31Hssevdu37QvLi9xS75B2j1LuCM+xwFqGMnnBD1ze/yu++e/Acv8H+7mS+hKPPKisC2wFKt9tvndeoa9Peb6TVvme44NqUPWOg51LwP5KPs82aVZSCJHgZAwOgGkU7Czm5p55WEyvYh/KYFl9lbKpqIntZbOw75mHxTQPyx574FQ2Na1sLrhJi0nZvs8+i9KTTaRNxNcYIYNHNt3DFUsJpy2nuGbIx+gdq/rp73j0l/dzeX8Jpy0lnN7v4Lb60Pw3WPbo3/jComw/+/n9PLL9d9yFf2xNCY4ZPOIdg1v/nOfgP3HJe84QNZvx6EtkDf7BU/YPzH1cKRtg5vqXmH/rlFIvyx+4PLOMR5/6hWfrL3hgexkpn//Bv330k/gJIRJQUrTg9Og7lc8HHQCH6bpcQ0Gq0pbLKy8A+6uebSPlLc6g79Q8X4ttoLadPlsxuUUwEOIYn+V1/Pv/zOPu4PV9/z977xscxXXu6z676n7xdRiQiWQiAzvSWIgIx4oOEgy1MZZBYwVhKpZQfLao3FgRLsGAs4kPGB0iUSElJr44sBN2LEumgixyXeByhJSULWEYGQPOKcaMuNpytrQ1wEjbNtaxpcgDo/j6o+6H7pnpnv8a/YOZ96nqKk2v7rVWd0P/+n3Xu9bbzlP/ciLua/HzFf2veq2u3/P5zTKWPfgE8D4LnyyAK7/WWVZaFj6ijK15Lbav3znHJ2uKSXsIPva6Hgt+x8anCbbsYuFmG1feeV+pu6ef22se4P8EvuY5Fj3s4mqt12J7n48vlZHzeCH3vfM+XxeUkYODi+q54Wj+cQHNk+2TIAgJhQjclKjiW6mQWTaAtUy7f5yRWE6/cJD/fmFmejY1nuAbC2Hp050sfVq7/yv6Z7rph5ZgwMhSa6d+v/vLmW5ZEIQEQwRuGhhsW86JxjhOnHELbmrMXXRkiPE+QRCESZI8Y3Cpi9VxsUNsqzGREuVwL8Oj46TkrAtzbjPX+sfJLItzXtyFg/z3p57iqcBtEuJmeFAdmyr4nSYgJDr/3+hXLFheqI57PccKbyAKAO8zMvAVS5+OY17cVPnsIsNuI6t843kBDH/J7ZQc0tT5dgt/oglG0VD1BwdOp5POX81cVwVBuLtJCgtu+EAj9jP72GUbAMaxt9lJKUuN79zDrVCTpykvoKHewS7bAKXenR47DVsqGZ7uC9HxPh+fLiR954tsXPMiuB1cvbKIVbFdFl+/8yr9y1+k0NqJMlbXxic7czXlP+Qif1TLVQKjMMMRGJ25s5OcENGUYa/rCLD3RTZq/L63r/xaGbP77Bf8+5U/Urizkxx1/1VeZFFALc23RqlZbcCYZwVqozUqCEKCElPqb6fTOWdpx+eybdnu0a3y5ITD6Zzo/NVd0BfZZJNtTraksOCEZKKKk44aTAZwncmm5Odz3R9BEOYKETghwWjm2QKZICAIQjIFmQiCIAhJhQicIAiCkJCIwAmCIAgJiQicIAiCkJCIwAmCIAgJiQicIAiCkJDINIGoHGKbzZsnbhz74YKwmQXuNhb+pNOXb823EoiPyDnbBEEQ7nXEgotKHSfMy6k1tzI4112ZJGOvK7ncrt4MVRo9Z5sgCMK9jAicIAiCkJAkhcCl1zvYW19FftMAVpuybbN4S6vYfEb7Wzne2nRoLrqqp+B3bPzJc/4M2tbOgMzWnawo8B9+31N/1GTVnh6sZ504nZ1Yp7VWQRCEmScpBA4gxbSPwtGXqTUvp8E+TmZRi5oC5y7n4TIKU89xtraEs39ysWBN2eynsBEEQbgHSZ4gE1crRw4oaxQOX+rDbUolHWY4pc02/u2dUjVARYOnmyNbD3IxlircDi6+/nvlb0cvnzxdzDcegrFZCgip3ZgtyWYEQbgnSR6BmxNO8C9PzX1mbkEQhGREBG5GmQYLThAEQYgLETiVlPQqoBksHewyzQPXdNQ68xac4cEngPeh4HcUrrkfQk4JiB/rWSflmR7sLxXwbMv01i0IgjCTiMDRzNuN68iu2YfVtg88dtrtaZSmqsWWDqxlRt/RmTUDmGruhgnf7/Px6ULSd77IxjUvgtvB1SuLWOXtt24iN/CwcpxvwnfB79j4tP+62NlJTogJ365RD2QayFlfBS2SZ00QhHuLmFJ/O53OOUs7PpdtJ/32q84Jp9MxcbLyLuiLbLLJJtskNrHghDBY6XSWY0Tck4Ig3JuIwAlhqKUkWyYICIJw75I0E70FQRCE5EIEThAEQUhIROAEQRCEhEQEThAEQUhIROAEIZBlK6g4uIKU2Tpvw1p2xtve0bXBK+XMVHuCcI8hUZRCUpK5u4Lve2fBj3/E6YN9uCOeYWDlwU2snhew+5MPePXYrfCnbVjLzpIlwfujnReqn4Cr8zTn3ot6mv68GNsShEQjOQVuw1p2PuYO+1LL3F3B6pEOTp/2zHrX7hqWraBi+6PqV/6nvLvnL9OX0Xwm69axmOKjj/K31zq5dt2/N3N3Bd/nA17dc8v3u2L3nSgi4OHawdNc0+7asJadj0Tpwnt/4dVAQYrlvBD9VO5bBcVEFrlQ17dzdzSRW0zx0W9zY8aehSDMPknoojSw8rEluD4I88W+bAWrl37Kh8ksbgDX+zi95zSvvvZRFMvmLqvbh4GVBx/jge6/6MTN+3zf1bzsB499gGvpo6xcNmOd0ZH5yBJc/xHFogrRT6738W73HYwlFew8WsFO30dC5POU6/t2FFfmLa52G/i+uC6FBCL5LLhlS1jGR7wb5gs4ZeU/Qrd8xd7rpFSsZTUfBVvhS1JI+eS/Ap7vLW588hhZS4DrhCGci/K/gtydkVlM1tJPuXEspssIibtb9S4sW0HF9gA5WpJCyrg74MPBw9/Gl5C1AQYjWH7u0528u7uC71d8mtzeCyFhSDqBy9z4KDg7wlgOi1mVD9dfm93/3CkVJVTkz/f91o6z6Mdg7vChz91mYOXBtXDqI765/TGUZZMD3X2LKT7qLSNorClSu9HR1+176U4Lkfutd3F60V678hw/fC3auJqeB9IMQORrCH2PTvOqt19bI7eRufsxHujuwF1Rwk7NvWc8oKfX+/jwkwq+v3ux37W4bAXfz/fw4Z4o99l9J0jg3G5YXVLBzpIw7akMnv2I1dsfJfN0iI889b4zrc9aEGaO5BI4r/vxWOj/nCkVj2L85CPOhf2Kn34UkfHw7p7OoBdKSkUJ30/5iNN7lBd1SkUJFdvX4va9yOezevujfPjaac5dVy2MCgOD6svH+zJ9NdTLaMNafbsb1rKzpISVn+rHq0Ljdf95615M8dFNFI9MRiBjrVu5Lv8YmYGVW5WX7KunPWq/DXz4muaFvOHbGMc/5uokn+OXIzP70vY9z2Me3HTy6mm1YMNadj4WfPzgsdO8u7uCnUe9e2Icr0yZTwq3NCJnICVFI85h2gPg+qdcH380qrUnCPcCSSVwKSv/kZRPPgrzgjCQmT0f1wezGW22mFX583F1Boubv8xvhbhP/4UPszfpXj6uTq8geRh03mF1gBWSkr2EFAItGWUc0t3d4W/3vb/w7iMVrF5p4Nr1KC96r5vXJ5y3uNp9h4pHFsN7U7x/Gx5l9bxPNXV7uHbqI5Zt/zaZ3GJw2RKWzbvD9Wtq+Xv/havkMb6pcS+mpBnA/V+hrbdP3bhL1Lp8OxeTtfQOfzsbvXtGrRXkJYYoTP+HzOSsysFjqnUYiut9nN4TsO9TN+55KaSATuC+Oe9TbsQkWIq1tyyUNXu9j9N7+mLtuiDMOUkkcF63VZgX8IZHlTGb2fxqXTafB7jD9U/DHXCHv4Uti87gsQ4+PLiJiqOPAsHutbgtliUppMxb4qvXxydxdjSQoDEkDdfv8CXzWeYV4g3fxsinujHVlLT54c4O6frL3P0Yxk8+iGK5h4iijAnv2F080aKLKT44n6te8dywloo077himKjHSNcXY6vukTvKR0IUd60g3O0kj8BFcVtlPrIEt3Mmo/pCcP0OX0Y8YL7OMlG+xCfTgOalHCLEXD/mpLixGImx6pjmjsVJoAWyJEUz3ubhb+NgzN/Eznxlj6vztO4l7x65A2nhqw9y/U1mnliUKSZ6VHFzf8CrB2fPMzCl60P5QHDPsLtWEGaDJBE479SAv0SeGhBmbG7mUKL3vr91BYNBL8xb3PgEvv/YClLe847BPYpxPE4rUyemqjszXxNMEOQajIDqFowWbecNkJlU8Ipat38sMcCd6rW0I7j63CMeyA4ch9IT0fUXL9f7OH1QuyNeq0/DvEd1lrK7W43S3PBtjCyBMGNl8V+f8qHz5X+EeK7e4B6ZOC7cIySHwC1bwrJ5n/JhhKkB4cfmZhbv17b2JeYVhOCyTycxhhMQiYga6ajeA/fpTk5TQsXRCrVUidD03oPACMvvH63AH+Rwi3N7PqD4qN+K0vY7GpOu+5MP/IEy733Eh49tCnKP6tpWRXLVhr5pCHqZY7SW8oa1VKShCM1jbk7v+S9WHY01MChGIv1fUT+SUpYGjmEKwt3JP6Ck9o6K0+kkOzt7hrszM21HXpkk9GoXwl1KKBfhhrXsLEE3xpVSUUJF9sfxuVHVcP93Q50bbuktDZObbkEEt2eIj5RPPoWl8KFmSsSk//1GcLNG/r+icbmKBSfcI0zEsjmdzpiOm4ltLtuW7e7aUipKJnYeXDGRotmXubsiaB8YJlYerJioqDDMeZ/vlS3UvdWVHa2Y2Ll78Zz3UzbZYt2SwoITEokQK4qEDXgR6zx2ZC1KIfEQgRMEQRASkiRcbFkQBEFIBkTgBEEQhIREBE4QBEFISETgZonM3RUUbwhTuGwFFSHzcBlYebAkjjxl8Z43Q4S9vskR8R7GzGKKj66NkhstDBvWsnP34tlrTxCEKZEcE71ng6D5UTOYqTrkXCxtKp2pECqaLlKEXZg8acQxH0xLyJQ4wNKAxY5DpdIJN4ctIt70Q5O8h+Hmxc3kUmaCIMREcgpclPUEI092DVNfCby7R7Mm4oa17Dy6NrzIhXgx+lfniCJW7/2FV3XCoYTDzywGUpYRNiGoXsxU0dPlH4uWCDSAe2nlelm6ShDuSpJQ4KZ/XcqUNAPuwCzg733Eh4+tDS8KWpGarNURxoL728q17Ny+xPf7w5ivQFt3iDUOl83nAeZDxIzXwfhEL4ZEoOH7E27lkKlYyEsClgcTBCERST6B8+Yyi7AuJYFiFQX3iIeUkoAsyBseZfU8D+/O1ATjMFbDtdPgc7dNmsUUlxj4sPtTVpesJfM95XoyNz7Kl90f8YBm36wQyjLWlkWykCMiwiYIyUDSCVzmxkfB2RHGUlJyxl1/bZJZBd77C6+ylp2+hYthUi/RJSmkzDOQuayPa9f9q/ArxGmJTRp/Ju1zpz1cG1nLzoMrOP1BipqFug8ooUKTZywaxqm4KBMKr8U4xXFJQRAmRXIJXBT3Y0rFoxg/+ShK4sswBI2LxYqaDmb8Dqs3Luba9VuaVCcRLLGlj/nzfXmZQmBDSsVaZRFd36r9f+HVT1dQsR1/BoPTnUp2g4rg8clQma6n7KIM+eHgJcIHRECKGT93+PC1uRBasRgFYS5IKoGLnBbHQGb2fFwfTC5YQG9thcbd3RHWCsvcvUnJb3bwDquOPkbxhhi+8KOKqYdrBzujVBLQx9OdwfnDrvdxeo9+1+CxQHfhNOQ8i4TmWjN3V5D1H1HuTyzBKXskIEQQkoEkEjjF/fjha2Febt5EmpO0wgITS4aLwMzcHXyuIo7+HG/nXvuIiu0VVKTFEsEZnEpFz3RNG5gDIqWkCZwmAARbSJGmNUQqm8/q7RWsDtXuJx/w6n/EfAWCINwFJI/Abfg2xvGPuRrmhZ/5yBLczo9mbd5SSkWJKm6aF+31Pk7vuUPx0U0Uj8QyVhNOxOINMpkCcc8/C0Hc7t6pEIMluuHbofeHcheDGgg0DV0TBCEukkTgpn9qwFRxn+7k1dOhSm5xbk/Igpkj3KTqsEzSOrzex+mDk+9WSkUJFWkfxTnHzB/YEcyn3IijxpBEFeMIK594LVWZRycIM0JyCNyyJSyb9ykfRpgaEH5sLgm4lyZVx0y4wA7FRSkIQuKTFAKXufFR6O4II2BRxubuaiKMGc3a9AINYaMXFeIKkQ/n/ota5yxZcFNhTlyxgpA8SMJTQRAEISGRbAKCIAhCQiICJwiCICQkInCCIAhCQiICJwiCICQkInCCIAhCQiICJwiCICQkInCCIAhCQiICJwiCICQkInCCIAhCQiICJwiCICQkInCCIAhCQiICJwiCICQkInCCIAhCQiICJwiCICQkInCCIAhCQiICJwiCICQkInCCIAhCQiICJwiCICQkInCCIAhCQiICJwiCICQkInCCIAhCQiICJwiCICQkInCCIAhCQiICJwiCICQkInCCIAhCQiICJwiCICQkInBCSNLrHVibDs11NwRBEOLm/5jrDghxUtTC3hoTKa5WanfUKfssHViLRmnYUsnw3PZuTin519/wdIb6Y/z/5V9//P8wMKc9EgRhLhAL7p5mHHdqHvlz3Y27iardPE0n1aUvUF36Klf5b/yPfzXPda8EQZgDksCCe44V1jL4Uwl9jnD7nuAf975ITopa7HZw8cgv+BrgoV+yZucDXK/tZZG1jKWB5ZGwdGAtg3bzJrrD7jvENls5md5yrUVW1MLemlQumnvI9R7jsWsstBGc/WkU1lfRfaA5oPFDbLMVM3K4gLe7lD35TQMUjr7MkQOw+YwF+kcwmYzgaqWdckqNMNi2nBON/lrymwYoNSp/68v0/XbbX+aItw9R+z2DNB+j2vfjBn9xeliVvYjloLHirHQ6yzEOtpK9sXameyQIwhyRBBbc7/n8Jix95Dn/roeWYMDF56rg3fdUGZwu4WxtCWdrf00/BXzvqSc0dRhZZS3m76+WcLa2jU9SCsgsiKHpxh4GMZJr8e9KT08DV49P8PKb8ug1L6fWvJxacyuDxnK2WbSVGCm1FTNyWC03mNioKf/fB87hzllH+qTuCcA8TDmjNBy24zaWUzj6Mg32cTJzNeNu6v5a83Jq21xklnWo1mIVm8+Uk2J/2ddvt2nfpPotCIIw0ySBwMHYeQe3H85lofr7vrwcuNLGmPr763d+ysefeY9+n5GBr1iQatTV8cmffqgeowim4cEniE4dZ3WiUcXKHLC31vmO6N6hse6oo9cFKelVuloG27xWWKjyOnpH4xOPwS6vReXiYpAFCLha/VaZVqyL1pGNnVO+cwKvM5Z+h2Mb//bOO7wTuJ06SOFkL7Dw/+K5fAODFwPH4Gopyc4W600QEpwkcFECn11k2P0iiwpgzPEEacth+PT7/vKHfsmanQUs0J5zU/vDb+0BjL1ewpUYmx6+1Ie7Rhkn6y5aRzZ9nOrSHGDpwFqmF1P3qL7tXo3LsHvHckUQi9b597XaKSw/BL0xdiouBhnxQBpAViqYIPTDAAAgAElEQVQpBiO7bAGhGy79j5D9jsoJ/uWpE1PsK4CZ/7n7v0H3q/zfIbRbEITEJzkEjvcZGdhJziPP0Te8hHT6+XefxfYcK3YWwJVfc/YdRfTue+qPFKZOU9Ndl3Fa9pFrgeH0FdDf6B+HKmphb5lRN7aV3zQweUul6zJOi4XN6SPT1OlQZJJmGGfkBpDFDI6pbePf3in1j0l68XRzZOtBLsZUh5n/2V5C5lAn1dYb095DQRDuDZJE4ODrnn5uVyxhYV4Onks/DAoQ8XyhWnQP/ZLvrbk/wIKbCs1c67ewNf0QK3NGuLgl0JxQRQPA0kGpMdCCi62Nt7u2sLcoDdCePI+0LKBLmdcWX90K6fXFZHr6ONsFdPUwWFbO1voqvwtz2piqBacRt/9hC3OMGmTisXO44FnEwBOExCRpBI7PfsH1sU5WrXFxVTf08nsGrxRT+HQnS58GcNF/5SsWTJcFBwwfOIfbVo7J1Yqu6a5KLpYPUFozgKkG8Nixu4xkx9NIYw/usnJSPN4ddZxoy8NaNoC1DCVS0lU+OevQWI7VVq78rbPY6jhhhm22fVht+3yHB0ZgzgXLa9cq1l9GCcfbS3z7B99+QeOqdDHqAaMhh8crobllDjoqCMKsMBHL5nQ6YzpuJra5bFu2xNysZ50TTsfJiaq7oC+yySbbzGzJY8EJAsCvOnFuMYK4JwUh4RGBE5KLn5eQ/fO57oQgCLNBUsyDEwRBEJIPEThBEAQhIRGBEwRBEBISEThBEAQhIRGBE4RA0vN44/k81kU/Mvi8WjOVM9GneMgz0741I/pxdzNTuIbKrdUczZvm/rCAuuefoW7Sq5vHd9664md4o3hB9AOFkEgUpZCUVG6t5gfe9+YdB795pYfLEc/I4GitOXgJMYb4s9VGLHPFdW36TrdRemoopj4H96cA9+tvcci3XpryEk35X8fZ0xN7TZVbq/nuf07unFCsK36GF/IjvIyDrjXcPSW2Z5Kexxs/KeD+yZwTC3lm2kv8D+qr7rf40bnb0c/5zs1JPkvlea2cH1wy2Dn15yGIwAlRUPLBjWPX5JW7u1FfGl/aKD0FR2vNPBjwgqrcWs0PsFFqHfL9fmHrbS5HfDkNscd6XL9LfalFFzdNn6z6NtYVP0P78wum58UcD+l5FGXA/Q/ksa5n6n0IJwbrip/hhYWBe7X3NIOjtQ/z1xg/FhRxy2Lg9eM+ga/cWs0LtQW8oDls8D8neQF5ZtpL4M/W42o/lGf3BjGIXFzc5pruI2XqKB8abv5stcHWan7wwDQJ/z2IuCjvaQ6xzTaAVbPpc7JVsflM4L4kJz2Poowh/qwRs5ZTNgYzCibpPlpA3T9lMPifsXyxp5AyX9+ml8vnHAzOz2Ld5BP6hSWzpJr22mqdFRKKyq3VtKsi8ecvC3ihdiZcejPDuu9mQfd5nTC0nLIxyBB/th6n1HqcP8dhGFd+J4PBTq3I3uZQmwPyC+4e17MQM2LB3bNoko5O+4LHfmJPc3O3cJtbX8LyMTcA7jvAiObL+8Fvcv9QoNU1xF+HzHz3QYg1PcK64icVi6wn0M0W6q3qxn0ngx9szaDlVKAFV0DmnRv8Jq4v+AWs/Ek17QF7fe6tPDPt39GXad2kg53HKT2lFpxSLJbKrdV4l/CcVTdZ+gIeBP46S80lMpdH3Lxw528MAozdBm4npfUGSSFwz7HCWgZ/KqHPEW7fE/zj3hfJSVGL3Q4uHvmFknHgoV+yZucDXK/tZZG1jKWB5ZGwdGAtg3azJqlp0L5DbLOV+1+QrlZqd6gJUYta2FuTykVzD7neY7yLHhetI9swjvNSaHFTXIvqD++Cy4Db/rKSASBS3b62TSi3xKW/Bg6xzZZH7+FRCr3HBKTPSa93sMs0T98p7bXNIC2njvsE7NArxyMeq+XBtAVAdDfUuuJneCHrBr95RRErn5stPY83fvLNEGfc5tArxxXxCMyxOmSj9JV4xuCUeq+FGoOLcIb23sRTHo3785+hPT9MYYTLXPfdLO5nAd/NAwJFNcOs3jf/eOflv96g+idPUvfXtzQuSuVDI7O2mh+op07WRdnyn0O0l5ip7LH5XZRlBdD91pTuy1Tw3dNYxxh7bJR67+G5t0IeX/UHBzWrwf5SAc8m8GLjSSBwv+fzm2WseuQ5+hy/V3Y9tAQDLq6rgnffU2VwuoSzn4FX7L731BNcecebFNXIKusi+l8t4exnijhmFqARzDA0Kmllci3Qra6yn56eBq5zPrHIb8qj17wcJUGMInbbLHWaVfmNlNrSsB9ezokupXyjBU40XsZpMWGqcQDB42OK5VXF5jP7SOsKt8p/uLqBrkqOdOETwpDn1kC7eTndBJxb1MJWE9gPL+ftLlVsU+00zIK4TYUvRqKJm2qtxSlKUxWPWMks8VthDE1b3qeoXD73FpfPxXNmBj/Ih2udDpb/U4ixwFCBOMM9/Oh1eENrwd5x8Bur/9zKrdV8d7Jd6bFRipl2jUjGFGQyg8x1+/cySSBwMHbewe2duSwExoD78nLgyquMqeVfv/NTPvYdrSZHTTUC/qzfn/zph3z8GXgFc9mDT+jKQ1PHWXsxu3IPAXVAFStzwN7of9F379ikO77XVU5hehVolgEebPMKmL787S3NXKt3sEtNt+OzziZBuLqjM479sNeq05+b/vgKUjx9XFNFt7vXRWlZKunE4gGcjoSnEfjib3xV8jCVDGnEJoPvZtzGHaFyxbWnjO/sibWtwCi/qEw24GCSLsqA6MDoxBYhGjI6NGK1esGq3KoEAu3puU3ld6qpLh7iciwv9OEefmQN70NtORW79a5DawEFcZtDr7wVX713Ec0/LkiKhcaTQuD47CLD7hdZVABjjidIWw7DpzXi9NAvWbOzAF2As+7D18XnGmtt7PUSrsTY9PClPtw1eeQD3UXryKaPU1pry9KBtcyoO0eflNRFr8b6ChwTGz5QoOSYK2phb80+rE2Zk3ADRq47XoaHR8C0gpVFMNwF+blGcLXGWPdUE55G61wPXUPVuvGwyq2qVRZBWEJbX1HC8qO8gKdGiKjOaIR5cU91mkDoexNbVOS64meUKL9Tt9W6bHy39hmOjsTWn2jiGt84YqgpGF4WUPf8k9AWosznSg3kNtdePz/ZTgjTQHIInNcqe+Q5+oaXkE4///6Zt+w5VuwsgCu/5qzqkrzvqT9SOF0JT7su47TsI9cCw+kroL/Rb8UUtbC3zKhLFJrfNDC5pKS+dio59biDXTmLY7SUZpAbo7gxYvImcsVFuzlW0Z1hCw71y147HhbvXLT0DJbPh/u/kwE9Q6qghTpwkiHwkyGu+Vczw6SFMs+sjmVqXZJD7LHaOFr7DHVfvMWhKFVEcvvG5aKMl4hWH8ACQv8PCG2Fe635ZA0OmS6SRODg655+blcsYWFeDp5LPwwKEPF8oVp0D/2S7625P8CCmwrNXOu3sDX9ECtzRri4JdAxMM7IDfVPSwelxkALLlaqWJkzD0ZvacStmf89ug+Tz0U6O+SXmyDu6M4ZtuBUpj4elsHRnxTwRedx/vqdat4ovgvHSaK+dOeYsP0bYo93vuCDkauIasFNdh6cj3DCA3Cba/FWG1BPtCCodWEV2jtJPL55dEqQiQHXmWxKEjh9VNIIHJ/9gutjnaxa4+Kqzo3wewavFFP4dCdLnwZw0X/lKxZMlwUHDB84h9tWjsnViq7prkoulg9Q6rV0PHbsLiPZsVQawrUZKkqxe0crubZyrLZyIPZxusAoyFLbAKVB0ZSh6W61U1izD6ttn7ZzMZ17L+BdscPn/urxWoSxr2qS+GhEaoaZmekM4YRDdVHe4zTfGqVmtQFjnhUI6VdNCP4BJbV3VJxOJ9nZMb16p525bFuYPPlNAxSO6oU0v2mAUmZnmsCUSc/jjTI4HhiS7Q3SCOvSVKMsg8K5IyxJpRL3Szpq4Ej0L/zpWqorarBJPEtpRXHBzkibUZ9XPFZThLG7CKwrfoZqzk+/d6DyJI79JkYT3IIDReCibk6nM6bjZmKby7Zlm+xWNbH5zMDE3voqzb5DE9tsgftkk0222d+qJk46nBNOp3Oi81dz3ZeZ38SCE6Yf3SRxhXimMAiCIEyF5BmDE2YP7yRxQRCEOUQWWxYEQRASEhE4QRAEISERgRMEQRASEhE4QRAEISERgRMEQRASEhG4OSa/yZ+Ne2991bTWvb3pGDabsrXXZ01r3TqqwfkmTG/v54JDbLM52Fw0Q9WvB0dC3CdBuDcQgZtjuncsp9a8nHbX9Nf92o7dmM27aZ2Bun2sB0cp2I/HlmRnylg6gj4G0usdWJuiLct7F3ABzo9BTcNcd0QQkgMROGFKnKwGPoRnL8xio55xyFlH+iw2OV3U7gL7QuisnuueCELik0QTvZWs07715Tx2GrZUqivvRyizdGDN7aFhtNi3+HDgqhyBCxNr099Ebjc6+rqnd8Hi9fX17DcZfL9vtu3GoskPt73pGOUB6zn/3f4KpQfU9AfVYAIOH9QeoWQRz+7X3qPgffrrGsd+2J+V3LuW5SksvmP097QP56jJn0FcQ3q9g12p5/xrXqoZyS+aN9Ft6cCaO4o91YTJMI69rY/sMhMpgc8kS7MSS2CZbpFrfb+xdGAtGqWhEbZ6zw+xAPazF8C5HqpCWL3KKu9gf6mAZ2XVZkGYEkliwSkik2J/mVqz4hKs9b20qth8Rlv2MnZM7NK6vIzlykvTvJzaNhcppi3ke8uKWthqGqHdW69Z+yKOoe5IWDrYpam7wZ5G6ZmW6bFcLD9jv2mMVrPixjS3DfFwWT3WIn95uXFILX+Fqx7A1eEXN8CaC56BwJd0M9f6x0nRWViZpBnGcV5SjyxqYSONvvvVYAeTRX9dKaZ9vnveYB8ns0hffq3VTkpuHG5Jo4m0ruW0u+ZhKkvlormVQYOSnFXBu9//vLZ63aFFLewtS8N+WH3WbSOYajr8/xYADCZ21ajnH7bjNhYHj+kdB9d8eHz95LsvCELsJIXApdcXk+mxcyrUWoiWLZgMLi76ypp5u9GO25jnf3F57DR4v8IbexgkjW/pXlpGci0hGo6l7gjk5xoZbPNbbMMHzgW8jOMlC2tRBn+3d/Cad1fjb2l1Gch5XAlG2Z6bAa5+tfwG7/V7IHUR2nfy4oUwGsIUDeqnJY9M1zm/pdNVyQnNsxi+1IfbkKoXbs09D1nedRlnagjxiIbHzln1A8RtPxPCGh7Hfth7z/Vinf74CrA3+q+j8Qx2T+Cz15zfdRmnZx5pIeJ7Ru9A6sPB+5t/XEB2tlhvgjAdJIWLMj01MBFoAJ7R+DNgd1VyJKsDa9kA1jKCXVpx113Ft1Ih01uvj3FG4u1rAJ8P3whbdmPUA6YctnOe18hiQ46Bv/dfQTvUljo/3Nl19LrKKXy8ire7mhWh7t2kKVdclhrvKKCPhHH3X/bft5BrWzbzdtcW9j5eNU3JJ0MzPDwCOcrf6anzSDEG5rmDQe0PTx/XfH1t5u2gBLcKt8Yg514cRBSEe4ikELjh0XGIlMBUtQ78YzCpupXwo9K4iVrVKshvGmDXmRa/yE2xbv3Y0/SyKD0L8IpcFktTATWb+IXhMfaTQbntGOUAnmu8dEAviKN3wt/W7l4XpUXrSCeTXKOL3h3+svymfZiw02BW75E6TjZpGntw27aw0j75U2MlPT0NRnsYBtKZvqwIixfCaO+UqxEEIQJJ4aIcvtSH21jOtlBuxMYeBjFS6As7r2JzkTGM+yqGtkbHp6luxT2WWdYR2Z1ZeRKH04nTcXIS86sUl+M3TJvY7t1l2cQqwxDvHriB14V5s00dnzPvxrzlDwQGSt4ag9RwVkhjD4OGVNIteaSEul6fRV3FZotpch8UPuo4a08jOydgd+pi1Z15iG018datnL/RNI/BXsVV2t3rIsVkmZZ5cqnzYfRm8P6qPzhwOp10/mrqbQhCspMUFhxdlRyhhb01Gnefz5VYxwkzbLNpXE+uVmpj/EoPjKBUIh29LspodQdEWKruL6+VMHyggIZ6B7tsA5R6j4k5CvNJGm2b8A3zGJ/HZvNHQV44cADq69nvtdDwcPXwAd+YW23XELayY9i07lHPNV7SCF1tL5SXQuik93WctTvYVQb2w/p72d1qp7CmHKtNaXnQbsdtisOCQ/l4wWTyWZ7DBxqxn9nHLtsAMI69zU5K2WTqnoepZgBTjfJLZ0E3bqKWDqya8rgiW6vBeAdaQ0ytaL41Ss1qA8a80HdVEITJEVNmVMnonUxb1oT1zLGJRkvwvvb6LN2xJ99kwnFwrvt7b20n32SiszpMeeXJCUeSZFuWTbaZ3pLCRSlMlgweMATsKlpDjiE4MOXZ48BqOCkh7zFhbQDTGJQcDyyp4qTDiXO/idEz2ZT8fC56JwiJxT+gKF1UnE4n2dnZM9ydu6/tpMXyM2xlGbpdgRPBfVQrE5cP//MsLdd1r7IeHNXQKPdJEGYFEThBEAQhIREXpSAIgpCQiMAJgiAICYkInCAIgpCQiMAJgiAICYkInCAIgpCQiMDNMflNA1htA0FZqqeD7U3HsNmUrb0+xJL200U1ON9kEkuF3eUUtbDXNjD9WcLXgyOR7pMg3OWIwM0x3TuU3GLtrujHTpbXdijrSLbOQN0+1oOjFOwhknfOGF4B8m0O/fqQlg6s05U3bzq5AOfHoKZhrjsiCMlBcqxFKcwYJ6uBD5Us1bODsoCyu205R2Yoy0Lo9DzTQ+0uWPwmdFaHWs1EEITpJIkELmBhY92ixRHKLB1Yc3toGC32LaocmDIlcMFlfYqbSO1GR193HAv7RmB9fT37NUnZAlcq2d50jHKj/hzvYs0AVIMJOHxQe4SS6y27X3uPgvfpr2sc++ECXyLR/KYBCkdf5hQW3zG+e2rJIxMX7aHEraiFvb7sAUZ1wWXQ3reIdavlpeo1B6XGieHfgvZ8L4HHPHtBWfmlKoTVW/UHBzWrwf6SJD0VhKmSJC5KRWRS7C9Ta1ZcgrU+kali8xlt2cvYMbFLO/5iLGdX6jmlvM1FimmLP4VNUQtbTSO0e+s1a8UthrojYelgl6buBnsapdPlerP8jP2mMVq96XDahni4rB5rkb+83Diklr/CVQ/g6vCLG2DNBc9A4EtanwVbIZM0wzjOS+qRRS1spNF3vxrsYLLoryvFtM93zxvs42QWqeVqCqJSW4g0Ql2VHFGfER47Db5nov8oCFs3MbiMI/1bsHRQanSpz+tl7B7A1RqcP+44uObD47J+pyDMKEkhcOn1xWR67JwKlQLHsgWTwcVFX1kzbzfacRvz/C8uj52GHUpOMOUFm8a3dDnBjOSGyjUXS90RyM81MtjmfzkPHzjHoGEFK6ecj0zJ9/Z3e4eaHgdo/C2tLgM5jyvBKNtzM8DV70uf816/B1IXoX0nL14IoyFM0aB+WvLIdJ3zWWh0VXJC8yyGL/XhVhPD+tDcc315HSfMy2l3GSlVx+BC5vmLRNi6J3du4L+F/FwjuHrU56UIvT83nZ7RO5D6cPD+5h8XkJ0t1psgTAdJ4aJMT52nSbAZAs9ozC7DILoqOZLVgbVMzTUX6IKMu+4qvpUKmWWaHHYAjDMSb18DCMwMoOXGqAdMOWznPK+RxYYcA3/vv6JLepo6P9zZdfS6yil8vIq3u5oVoe7dpClXXJYmXcYCvcnk7r/sv28hxsS6dyxXhMSi3Pu96bFn2o5Wd7wMj46DSfl46aaKlTnz9G1puDUGOXddFIwgJBZJIXDDo+MQKeel+gXvexFlpU4uC3TjJmo1Yzi7zrT4RW6KdevH86aXRelZgFfksliaii9x6IXhMfaTQbk3IarnGi8d0Avi6J3wt7W710Vp0TrSySTX6KJ3h78sv2kfJuw0eBPDFrWwtya+hKc0bqI9d4DS1Mzox84ww8MjgGJZloLysRNGdBcvhNHe2eydICQfSeGiHL7Uh9tYHtqVpY7pFPrmoFWxuciI234mrmCO4dHxaapbcXFlloUYa9JSeRKH04nTcXIS86sUl+M3TJvY7t1l2cQqwxDvHriB14V5s00dnzPvxqzJ5O3l1hikhrNCGnsYNKSSbskjJdT1+izqKjZbTJP7oNBxiFwjuEcHNZc3intaXLmTQXm2g23LQ4zzBpM6H0ZvhqjlDw6cTiedv5rRzgpCUpAUFhxdlRyhhb01Gnefz5VYxwkzbLPtw2rbp5S5WqmN0d0VGEGpROx5X2zR6g6IsDQqx3mj7oYPFNBQ72CX1yLQ9TsaT9Jo24RvmMf4PDabPwrywoEDUF/Pfq+Fhoerhw/4xtxqu4awlR3DpnWPeq7xkkboanuhvBSsQG1Q+3WctTvYVQb2w/p72d1qp7CmHKtNaXnQbsdtis2CC77fIaIduyo59biDXTUDmGog9ujTyM8jMs283bXF76r2Eup5VYPxDrSGmFrRfGuUmtUGjHmh76ogCJMjptTfTqdzztKOz2XbybllTVjPHJtotATva6/P0h178k0mHAfnur93w1Y1sfnMwMQ2S/C+vfVVQfesszpMPZUnJxxO50Tnr+b6emST7d7fksJFKUyWDB4wBOwqWkOOITgw5dnjwGo4mfQh75mkBd2zdWQbwD3st/6sDWAaCzXJu4qTDifO/SZGz2RT8vOZ7q8gJD6S0VsIjeVn2MoydLsCJ4L7qFYmLh/+51lcrutuxNKBtUw/y1sXJLQeHNXQmOz3SRBmCRE4QRAEISERF6UgCIKQkIjACYIgCAmJCJwgCIKQkIjACYIgCAmJCJwgCIKQkIjACQpFLewNlYJGEAThHkUE7l7F0oE1UJBC7RMEQUhSROAEQRCEhCQJFlt+jhXWMvhTCX2OcPue4B/3vkiOd0l7t4OLR37B1wAP/ZI1Ox/gem0vi6xlLA0sj4SlA2sZ+oV+g/YFLPDraqXWm1BTTSNz0dxDrveYmBdbPsQ2Wx69h0cprFFX6w88N2jlDX1ONv3CxqEWLLbS6SzHONhK9kZZGFgQhLuLJLDgfs/nN2HpI8/5dz20BAMuPlcF776nyuB0CWdrSzhb+2v6KeB7Tz2hqcPIKmsxf3+1hLO1bXySUkBmQQxNq+lytNm+09PTNFmfIb8pj15vehVzK4NBaX2MlNqKGTmslhtMbIw5g7WR0ppULppDnFvUwt6yNOyH1bYP23FrT7V0sMs0QrvatwZ7GqVnWmLPfC0IgjDHJIHAwdh5B7cfzmWh+vu+vBy40saY+vvrd37Kx595j36fkYGvWJCqX1Pwkz/9UD1GEUzDg08QnTrO2sfJzD2k/q5iZQ7YW+t8R3Tv0FpFdfS6ICVdn9ltsK2At7vCl4dnHPthb/36c/PLTWBvVOsNJj/XyGCbv2/DB84xGJRjrZaS7Gyx3gRBuCtJAhcl8NlFht0vsqgAxhxPkLYchk+/7y9/6Jes2VnAAu05umSUfmsPYOz1Eq7E2PTwpT7cNXnkA91F68imj1NaUQmxQK97VN92r2aB4+4dyxXRsWyJsQfxUMW3UiEzMLcZ44zMYKuCIAjTSXIIHO8zMrCTnEeeo294Cen08+8+i+05VuwsgCu/5uw7iujd99QfKYwt/2Z0ui7jtOwj1wLD6Sugv9E/BlbUwt4yo27F+fymAQpjqffGKG5CdNIzGsP4XGzoVsIXBEG4x0gKFyXA1z393F64hIV5OXguBQeIeL5QLbqHfsn31tw/jS03c61/nJT0Q6zMGeFiUGbocUa8KdYsHZQaA88PQ9ct3LrxvSo2Fxlx91+OSeCGR8dJyVmnjqkdYps3EEXT58yyaFMOrHQ6nTgdJ4nVaSoIgjBbJIkFB3z2C66PdbJqjYuruiGj3zN4pZjCpztZ+jSAi/4rX7Fguiw4lPErt60ck6sVXdNdlVwsH6C0ZgBTDeCxY3cZiS0xUB0nDi9mb43GjehqpTZIQMP1qRH7mX3ssg2gjNW1Qk2epryAhnoHu2wDlHp3BkVwuhj1gNGQw+OV0NwSU9OCIAizRkypv51O55ylHZ/LtmWLvFnPOiecjpMTVXdBX2STTTbZtFvyWHDC9PKrTpxbjOCxc7jgWclQLQjCXYcInBAfPy8h++dz3QlBEITwJE2QiSAIgpBciMAJgiAICYkInCAIgpCQiMAJgiAICYkInCAIgpCQiMAJgiAICYkI3ByT3zSA1aZse+und8Gr7U3HsNmUrb0+a1rr1lENzje5J5frym+a3H2vOgiOgzPYIUEQpg0RuDmme4eSb63dFf3YyfLajt2YzbtpnYG6fawHRynYjzMrk73T6x1YA/LShdo3UzQfhNHV0Fk9C40JgjAlROCEKXGyGvgQnr0w1z2ZPUp+DamlYJ3rjgiCEJEkWsnkENts5WR6f+oWDo5QZunAmttDw2gxu0zzAHDbX+aIZlHj9HqHrwwC08xEajc6+rpdtJu1CVKnxvr6evabDL7fN9t2Y9Gkx9nedIzygOwGf7e/QukBNf1BNZiAwzqXXRWbz+wju197j4L36a9rHPvhAl/y1fymAQpHX+YUFt8xsabuSa93sJVGLqbu82Vm0J+r9EVz2QH59/TPK/BZA3ABzm+BJw9CbQh3pfWsk/JMF63ZJUgqWEGYO5LEglNeWin2l6k1Ky7BWp/IVLH5jLbsZeyY2NV0yH+6sZxdqeeU8jYXKaYt/jQyRS1sNY3Q7q3XHPgyjVJ3JCwd7NLU3WBPo3S6XHGWn7HfNEarWXFjmtuGeLisHmuRv7zcOKSWv8JVD+Dq8IsbYM0Fz0Cga1JND+RLxQOQSZphHOcl9ciiFjbS6LtfDXYwWfTXlWLa57vnDfZxMotiv+4U0z4KR18OeW5+0z5Mo62+tvWu4cDn1YrbtI9tluA2anvBsPzeHHcUhGQhKQQuvb6YTI+dU6FSyVi2YDK4NHnamnm70Y7bmOcXMY+dhh11yt+NPQySxreKtJVo87JNsu4I5JAZdJoAACAASURBVOcaGWzzW2zDB84xaFjByqKIp8VAFtaiDP5u7+A1767G39LqMpDzuBKMsj03A1z9avkN3uv3QOoi1mtqWbwQRkOYokH9tOSR6Trns9DoquSE5lkMX+rDbUjVC5jmnocsj4Sr1Wd16c4taqHQ6KLd+ywDKVpHNtp/J3WctY+TmRvig+QmeOZDqPR9tRuzyRbrTRDmnKRwUaanzoPRW+HdglPJgt1VyZGsDqxlal62QBdk3HVX8a1UyCzT5HsDYJyRePsawOfDN8KW3Rj1gCmH7ZznNbLYkGPg7/1X0A61pc4Pd3Ydva5yCh+v4u2uZkWoezdpyoPdhKCPhNElbu2q5IgqjjMaSJKVSorBqObIC9s1hQsw+iIsXq/8LQjC3UdSCNzw6DhESmCqfuH7XqhZqZrs1jHQuIla1S2Z3zTArjMtfpGbYt2xjj3Fw6L0LMArclksTQXU8agLw2PsJ4Ny2zHKATzXeOmAXhBH74S/rd29LkqL1pFOJrlGF707/GX5TfswYafBrN6johb21sSWYXZ4eARyQhSoHzBTFsBYx0jXK9feI+ImCHctSeGiHL7Uh9tYHnIsRXE5Gin0zYWqYnOREbf9TFzBHMOj49NUtzKWlVnWEdmdWXkSh9OJ03FyEuNBisvxG6ZNbPfusmxilWGIdw/cwOvCvNmmjs+Zd2Pe8ocgQ+XWGKSGU5TGHgYNqaRb8kgJdb0+i7qKzRZT7KJ/YxS3zk17iI2meQz2hnE7aum6hVvjTk6vd/gCUfx9NrE1lnlxD4PhTmjjznrWidPp4GRl9GoEQZg5ksKCo6uSI7Swt0bj7vN9qddxwgzbbPuw2vYpZa5WakON14UgMIJSiXT0WgDR6g6IsDQqx3kj94YPFNBQ72CXbYBS7zExR2E+SaNtEw/76n4em80fBXnhwAGor2e/10LDw9XDB3xjbrVdQ9jKjmHTukc913hJI3S1vVCuhssHjzfVcdbuYFcZ2A/r72V3q53CmnKsNqXlQbsdtyk2C87nEq4ZwFSj7HLbX+ZITFZuHSfa8vzuZFcrDfZitmrLA58Xoa3o0AE2Cq5RD2QayFlfBS2SClYQ5pKYUn87nc45Szs+l20n55Y1YT1zbKLREryvvT5Ld+zJN5lwHJzr/s7ytp4Jx1kmrOHKf9U54XQ6Jk5W3gV9lU22JN6SwkUpTJYMHjAE7CpaQ44hODDl2ePAaji5nqSh80UYbQ9ltVrpdDpxbknF/lIBz7bMQecEQfDxDyhKFxWn00l2dvYMd+fuaztpsfwMW1mGblfgRHAf1eBcD4f/eXaW65pLqg6CBSiQ9SgF4a5HBE4QBEFISMRFKQiCICQkInCCIAhCQiICJwiCICQkInCCkCzkmWl/Po91M32e7/gF1D3/DHXTur5aBkdrp7vOCKTn8UbEa8/gaK2Z2ZvTH989XVf8DG8UL5iZLt3FJMdEb0FIEiq3VvMDb/DrkI3SU0ORT0jP442fFHB/UMEQf7baiDjTQXvuHQe/eaWHy/F120+emfaSjKDdg53H2dMTw/nhrme6+hcv6Xm8UQbHo/Uhz0z7d25Gf246FNFbGWJt2JjvW4IiAieEJL3eoaSrCbfyfkS0K7Toc73d01h+hq3oS91qLpNBm19Pl1cvBCffhNQLUHLcu0exFB7sfosf/TWDN35SwBcBL691xc/wgwcc/MaqvETXFT9D+1YivyyHe/iRNeANqL6MByNeTQZHf5LFwOvHOTSstPXC1ttcntSLOQQ9Nkp13VlA3fNPwhcxnJtnpr0E/mw9HizMeWbaa81kRhPtqIQSkyH+Gu2csgLunw/VxUNcPnd7Sj0IzW2uvf4Wh+JeNT4EeWbaS1K49vpbXP7uM7yQ79Z/9KwHRzU03sXTg0Tg7mkClvpiZhdnjp06TpjrUPpXPOutByZyDVxibK54bcduXkMRuu9HOM7aAKYxyD4e4aAgMvhBPlx73W8hXD53nnXPP0O7dkb6nb9Fr+rBb3L/lzejWBoPkznkoHTY25aDH9Q+TCVDUxQQPeuKn2T5jfP8SPfiXsDKn1TTHouVOe3c5tAr2geTwdHah8Me7bWoBzuPU9qj/G6vTRDLSk38W9MAzbvmujOhEYG7Z9Ek54xx3cykwJfI9YA/1929RDWUZ0LrxsACN+47wMhtGL7NF9zGrbVq0hfw4J0b/FknBLe59SWk/C/1ZZpnpv2fonVgAXX/lMHg/7JFPGpdWgpfjbkD+pfC4mkcG6vcWq1YpK8EWjxhrJUeG6Vf5PFGbTU/CKzsjt+ynXkUazsTVdhO+UtaTinWZeXWatpLiM2NPFd88Te+Am4Nw+UH3bxw529BVn3tLlj8JnRWa70Ndw9JIHDPscJaBn8qoc8Rbt8T/OPeF8nxLmnvdnDxyC/4GuChX7Jm5wNcr+1lkbWMpYHlkbB0YC2DdrM/aWnwvgArzNXqdwuqaWQumnvI9R7jXWy5aB3Z2izZAaTXO9iV06dbmNm/7zIrz1igfwSTyQiuVtopp9QYbAHmNw34VtzXlRW1sLdGkwVA2+85REnU2hFa3Cw/w1YGrebf+ss1+27U1/NTbvC5aSUPM0RrG5SXKfWZd5z3VZOlsRADXY1aN6R3AevaSbhnT64HV8hlwLSWwxB7rAEvxQe/yf0EW2eDY7cpSlsAxOgWyytgJQ5+E5d14bWsiM1SDMO64md4IX8BX3W/RempSbrzQrlcp8r8Al6oLeCFwP13QokvKM8n8tveK3Szyf35z9CeT+zjkcM9/Miq/h3kOvbz7AVlJaOq48Guyqo/OKhZzZwtXZcEAvd7Pr9ZxqpHnqPP8Xtl10NLMODiuip49z1VBqdLOPsZeMXue089wZV33lfrMLLKuoj+V0s4+5kijpkFaAQzDI09DJaVk2uBblUY0tPTwHXOJ3j5TXn0mpdzAvCK3TZLnUZkjJTa0rAfXs6JLqV8owVONF7GaTFhqnEAwWNcw5f6cJuUtDLDXQBVrMyZ50skupJ5mHL6aDg8ytaacgrtL9MwamFX7iFAFSqjsr92R7MqzB3kN26im0NsqzHhbluuruKv9Gtv/aAvk/Zc8VrvEOVlm7A1oRMlABr7uVm2ie9ZAPX+agVxPfANUxZfHn6Fq5bnKS+6xkuHv+SnNd7Er4BhJeWpHZjN56Hox7TX/BhrkSJi6+vrKU+9xktmxR26vr6e/TU/Y3vXb2OzJtdDznw4H8+XsPq1HUjmwgV88Z+xikQGR0tSuPa6LU5LR7WsHozFUgzTfq2ZzMlaW2ECU8IzCddmVMHMCLAWwwd8hOOr7rf40YyMy81SO8fBVQqPr4fmuR4HCCAJBA7Gzju4vTOXhcAYcF9eDlx5lTG1/Ot3fsrHvqPfZ2RgJzmpRuB9395P/vRDPv4MvIK57MEndOWhqeOsvVgjGlWszAF7o9/S6d6xSXd8r6ucwvQqtN9Cg21eAdOXv72lmWv1DnapqWO8aXYA6KrkYvmAL6s2RevINri4eKAZ1Mxxg12VDNMCqPvrAxLmuVr99WnEeji9mEyPnQafCKtpaIrWkU5z/NnRAdjGv71TqhtXBMDTzZGtB7kY7fTG32JuVFIF2WybgCGNxXaeP9ofY3/uk8B54Em+Z/Rw9bBGCF0fUNsFVgvc7PoDF/gxP9X14xoveYWz6wr9lpXkPJ4FXRn80GTgZpt/rO/CgT+w4czzOkGNSIQcc1EZvs0X8wtYl97DZd8DyOC7GZCZobrDIIJlpYgLncdjClS4POLmhe+k4LcMU0iZ7+avw8CD8VwAxGL5hLReI1gXM0Hl1mq++5/eMbTA/gSO0SUHo3cg9WGCsts3/7hgTgNQkkLg+Owiw+4XWVQAY44nSFsOw6c14vTQL1mzswDdLJGb2h8uPtdYa2Ovl3AlxqaHL/XhrskjH+guWkc2fZzSWluWDqxlRt057lF9272al2P3juW65KHDBwoUd1ZRC3tr9mFtyvS5Cv1ZtZvh8RVgb4wriavCICMeSPP+9CUsnW5O8C9PnZhiHeexmBUR2t50jHJbPUtVV+GFSzf8Fpklh4ddH2COO8LzBp+MahOMe/gyfGBkVKqmNH41xJ+7C3ihLI91qvupcquZTO0YT7gxONUCmlTgQ89NBksKqEsfUqMoC8gccrBnKpegsq74Gao5r1gb6Xm8UXibH6nXoBeX0NcRnviCUnRTL7xoPxoIFTSiRn+2hY5s1F1jIBlmfWCQj9tce/18qII559YY5MzW3MRJkBwC57XKHnmOvuElpNPPv3/mLXuOFTsL4MqvOau6JO976o8Uxph/Mypdl3Fa9qmWzwrob/QLQ1ELe8uMurGt/KYBCuNqp5JTjzvYlbOYdFDaaOxhsKyYlUVVkAPOxql8S2WSZhhn5AaQDqRq2kF1vTIa9uzYmaIFF8BrOzr4nm0TD2QBXahWl2JVbc/N4Gbvb6fQ1yyWpsLnvTeADMDgbwcImXYoAs3DULM8/t5cPvcWmQur/eNFMQQwKONd7tCh9REZYs/rC3jDN+bm4DevzHGwRERLLnK0YyRmdbwsqjW6gNAj3ZrxTx2K23img2sWL4TR3hluJA6SRODg655+blcsYWFeDp5LPwwKEPF8oVp0D/2S7625P8CCmwrNXOu3sDX9ECtzRri4JVBkVNEAsHRQagy04GJFGWPTW1aqi9RiwT16jiNTmIuWXl9MpqePs10wTB9uk0kdCwQ4xEbTPAbbYsk0Ho3psOA0WHJ4GA9XfZaVmq28qJ5FXON3U5lSYdnEKsMQrY0A5/l31ybKi37M+kbvGNxjPOy5xkuxtnETPKVgjH5kWCb7Mr587i0un4uzsZkI6FDxBUQADHkjOlWX6wN5rOsJMUYXgwUXeb5aBOKaEB9OdBS+it+dEkB0t+i674Yr8Y4ZTm0eXep8GA3xzlSCTAy4zmRT8vP46p4KSSNwfPYLro91smqNi6s68//3DF4ppvDpTpY+DeCi/8pXLJguCw4YPnAOt60ck6tVHx2njpOVqmNoeOzYXUZiSgwUwrUZKpJRCTYx4e6KI8LRWI7VVq787Y3eVPt9hBb21gxgLVOK3faX1YCT4L5l1gxgqpmNCd9ZWM88zyqd1RQiklENNllkvzL5uXGGley3rWQ/oB/fU+a50XQsoNw7JqeMC/psCOPz2GwBUZgXoL8anjwItUmeb84XEJGexxuFoLyIlTHCP3+nOvyE6RkJu19AXZl/UrsWZYJ7Bi0h2wwvGoqLMkGoBuMdaA3xn6n51ig1qw0Y86yEig2eaSQfXKLjm2qwaQrjb4nGkzTaHuPLSYbwzwrV4CxV5sFN++sgz0z7P/1t8ktWTfY83/FDrIswDhUO7zQBH0MOrj1Q4J/PhzIuVjQWEBUYQzRl3BOsJ23BRY+mjC+qMfLYXjgijvlNkeBVdzRUnsSx38ToHFlwoAhc1M3pdMZ03Exsc9n2vb1VTWw+MzCxt77qLujL3bNtbzo2YWt6cs77EW6zNjDhbJj7fsgmW7Qt/L/VqomTDueE0+mc6PzV3PUveVyUSUUVm8/sw2RAcVvKSieAZhK25xovbbk7o9Hg7l8dQhAAWA9PLoTD/xyqsJlnC+b+vSMuSkEQBCEhkXxwgiAIQkIiAicIgiAkJCJwgiAIQkIiAicIgiAkJCJwgiAIQkIiAjfH5DcNYLUp2976qmmte3vTMWw2ZWuvz5rWunVUg/NNb46Ce5lDbLM52FwU5+lFLey1eZ9nB/mB5evBkRD3SRDuDUTg5pjuHcupNS+nPa4cKZF5bcduzObdtM5A3T7Wg6MU7CGSHc4YOiEZwDoVUZpOuio5Yl5O7WE77lDlF+D8GNQ0zHbHBCE5kYnewpQ4WQ18qGT1nR0Ck63eW8gkbkGYPZJI4JSs0740LNrFgyOVWTqw5vbQMFrMLtM8ICCxKJBe7/CVAbr0N5HbjY6+bhft07im5Pr6evab/CsT32zbjUUjGr6VPzToFgeuBhNwWLcwsLKKSna/9h4F79Nfl34h5vymAQpHX+YUFt8xvntqySMTF+0hxU2514S4/7Qt5wQdWHNHsaeaMBnGsbf1kV1mIiXwmWS1sLfGRAoEPa/Izzo2nr0AzvVQFcLqVVZfB/tLBTw7azlaBCExSRIXpfKSS7G/TK1ZcQnW+l5aVWw+oy17GTsmdjUd8p9uLGdX6jmlvM1FimmLf3ylqIWtphHavfWatS+8GOqOhKWDXZq6G+xplJ5pYVryClp+xn7TGK1mxY1pbhvi4bJ6rEX+8nLjkFr+Clc9gKvDL26ANRc8A4Ev6Wau9Y+TkrNO008ll5zzknpkUQsbafTdrwY7mCz660ox7fPd8wb7OJlFanljD4MYKQ01xkUdvS7IzNXcX1UQfUljjSbSupbT7pqHqSyVi+ZWBg0rWOlzcXr3+5/XVu/YaMDzqG1zkVkWh3v0OLjmw+PrJ3meIAiTIikETsllZudUqDUZLVswGVxc9JU183ajHbcxz/8C9dhp8KahaexhkDS+pXupGcm1hGg4lrojkJ9rZLDNb7ENHzgX8DKOlyysRRn83d7hS/VC429pdRnIeVwJRtmemwGufrX8Bu/1eyB1Edp38uKFMBrCFA3qpyWPTNc5f6qcrkpOaJ7F8KU+3IZUvXBr7rm+vI4T5uW0u4yUqmNw2zT3vrtVf3/zc4247Wf8Vq/HzllV7HT7fYxjP+y951qxrmJzUUBdjZtod80j+/HJh42M3oHUEPk3m39cQHa2WG+CMB0khYsyPTUwEWgAntH4E3V2VXIkqwNrmZobLdDdFXfdVXwrFTLL/DnXFMYZibevAXw+fCNs2Y1RD5hy2M55XiOLDTkG/t6vz5+WGjYVSB29rnIKH6/i7a5mRah7N2nKNYtB+9BHwrj7L/vvW1dlULLW7h3LFaGxKPd+b7rq/tRkUO9uPESu0cXFHfGHvwwPj0COpl/D0xNKc2sMcqbFFBcEIRxJIXDDo+MQKYGpah34x2BSlfGXWGncRK1qFeQ3DbDrTItf5KZYdzxjPLGyKD0L8IpcFktTATWb+IXhMfaTQbntGOWgrMB/QC+Io3fC39buXhelRetIJ5Nco4veHf6y/KZ9mLDTYFbvkZqzLi4aN9GeO0BpqneUU8mgviv3kGo59jCV/ODp6Wkw2sMwsBJISa/C75RVPkKIIwP74oUw2juFjgmCEJWkcFEOX+rDbSzXubJ8qGM6hb45aCFcUZNpa3R8mupW3GOZZaHGmjRUnsThdOJ0nJzE/CrF5fgN0ya2e3dZNrHKMMS7B27gdWHebFPH58y7MW/5Q1D261tjkBrOCmnsYdCQSrolj5RQ1+uzqKvYbDFN7oNCxyFyjeAeHfTtGT5wjkFjMXuL0rC3xpHJXFP3RtM8Bnvr8LkrteOvQS7o2EmdD6M3g/dX/cGB0+mk81dT6LYgCECSWHB0VXKEFvbWaNx9PldiHSfMsM22D6ttn1I2iRxqgVF1SqSj10UZre6ACEujcpw3SnP4QAEN9Q522QYo9R4TcxTmkzTaNuEb5jE+j83mj4K8cOAA1Nez32uh4eHq4QO+MbfariFsZcewad2jnmu8pBG62l4oL4XQyejrOGt3sKsM7If197K71U5hTTlWm9LyoN2O2xSbBRd8v4OjWr0u0tJUO9cmnbF7HqaaAUw1yi+tBR38PJToT694B/at1DZAaajI12ow3oHWEFMrmm+NUrPagDEv9F0VBGFyxJQZVTJ6J9OWNWE9c2yi0RK8r70+S3fsyTeZcByc6/4Gb/lNd28m85NvMtFZHaa88uSEY46zIMsmW6JsSeGiFCZLBg8YAnYVrSHHEByY8uxxYDWcvJtC3i0dlBrjcx3ONNYGMI2FmuRdxUmHE+d+E6Nnsin5+Vz0ThASi+RwUQqT5DyWtpwgF2XgRHAALsD/397dB0V533sff3em//S0rt0YuFPiQ8IGYSSjxwq6mVsjiXBU1PsI0mnJnBqDjga8U04aGpqDTszgtkdr2mNzFHUi1XQmtFOEzFFQCzEm5h7XgPXWKQ6r2U2jhtMbYjYuffiT+499XnZhl0e59vOauWa4Hn+/feD67vd3/a7rl/sYOLZC2bkJfFxXNOUt2IotRDYd3jeehn+aAXu+F21lPc/m3n8BWWQq+wreVG5YDoeDzMzMca7O/Ve2iIhMTWqiFBERQ1KAExERQ1KAExERQ1KAExERQ1KAExERQ1KAExERQ1KAExERQ1KAExERQ1KAExERQ1KAExERQ1KAExERQ1KAExERQ1KAExERQ1KAExERQ1KAExERQ1KAExERQ1KAExERQ1KAExERQ1KAExERQ1KAExERQ1KAExERQ1KAExERQ1KAmyDplaWsXDHZtbgPrFhKReXMhHczlxaOaL8JL29M6zKTla8vJX1E+xrU3GxKd2VjHmYzc2khpaWmCSsvnIlFuwpZNHf0xcvofHWyK2AYK5ZSUTgrZMFtzrz0Ia5hdkuvLGVJbwsNDZ7xrN0EMrFo1xqWTPPN3rrAwf13htwjvbKUVbOjrbnHpcOtXL4xtuWZSwspzZk+eEX/NRp2deEecu+hhR87nu9ARP19nK0NnH03zvJSrw37mqeSsO9DXJ/JTFa+vgzLoOVrqMgJnY/+eSRc3txsSrfNjxL04vufl4mTnAFuxVIqlrljfpETDjorllJRCGdeagh+uVcspeL1pUn2hfeerOc6WjjY4AnMl5YO/V669jdw0Pd3emUpGX+M7+Q+0vKAwYFwbjalz8RT5hBWLKU0x8OZl1q9n3lc3wEPl3c1cDkw730ND46yKlNVemUpq7jAwZfuBOZLK+8NE8DvcPalhgksjzH5MSTjLwkDnIlFy2bhvPBh9C/n3GyWzL7Npf3xZ1TmVBPuzoiT2LvXuLRsKea5wJAZyNiKlg25O0NO+IN+fYZkSdF+mcaREQWsmM8SroUEFw+X377G3G3zSW+IJ9CbMJvhgVQT4Bmcad0a6/IiTJtP6evzY5c3TN0XLZuFszXkR867H3Lm8VKWlJpwTZUMfVBLBOEn86G+Pz5hn1sigcD3v3fmpeD3zbX/As7X57No7p1hMvlodYtdxzEpT+57yRfg5s5iLtc4EyNDMC+aA5HBahjuXg/mwoiT6or5LJnm4Uwc/yTmnMimlBCJBBh/fTpjZTAzWbltPl+0NtAQK0MaxS9Tc6oJt+Na+L43bnOjf058gX7FfG9TXeYszHThbmjloO+HubcpbozLixTy2qOVNzQTD067zc2I99Xdew+zL2CPm9nLqHg9xrqRfJ4x9xn++5NeWcoq8zUaXhrBd2iWGfOtP0X8793h5q1lZMxi6M9zbjal2+Zw43BD1EBWuq0QIoPcaMqTKSHpAlz66vngaInxzzeTxTlw43CCJ6N3P+QgS6l4vTRkYXzt8aHNc+NuxSNYuB0zuI+f6TwYzwmq0MSlww24V8fZTDSa8iaIu9cDoYHSH4wCQSTGNbh4jx/yI2DcDff9mZvNEvP4NN09MN4/Esa8vOks2VbKEob6wSnjLbkC3DDNj+bS+VhuXePsSE6M737IwQkPHAl69084C5exasKvDd7j89tDrPY1LdHZ4v2FfaOFS7vWUFGZePYaV3mxjKqJMjpv9hYiRkYeu1PJLFb5fzjd+tPoKzQaw3x/zIvmYHZ/Svqu0kDAHquT+xe9wxzjRhcNh6HUF1TCxdNZKcHyhpV4mTL2kirAmRfNwXzrWowTu4n0zOk4LyR2Qo3dAzDI3dnCpYiyov1qH+4Y8Z4oIps8gydP78X49MrSwElz0Ik17CSfWK8wd68H8zJf86J/4dxZzJ3m4VLMf/Rgs1ewHh4u72qBYTqMjKy8IYyqidLD5/2zyFgBrpD305w63ZvFjZjvM1ixlIrHg0vj+d6FSaSpe1Cg9+879PfHnDodZs+Bww0cDFzTXcPK3jg7Dd124y58hHTuhHznZpIx+x6fn45j/xtdNLzUFd9rHIvy5L6XRAHO2/x46XCMf3J/h4UEs7DIJsZYPTDTK0PnInvOja3hgmGgziuWUlFYSmmqb/uIE4S5tJDSRLK9d69xadkaVpXe9pVvYtEz3sws9v6xesDF8R6NqDyfaNet+q8Nt9cQPFy+cJuKwqWkv+t9v8ylhayafZszCXRYite4Nm0Pc90u5vcHcHd+GMxabnRx6dZ8lsTb3Heji0u3SllVOTMQjNMrl2G5dSF2q0rMjiWxhGRWIylPppTkCXArHsHS/ykfxfjipj8+a3CHhQmQWLf4Mebr5bcqxgnIfflT3DmJ3OIazLz8wSORzDPxewJHVt64XbcadC02/gzYUlhKRWHokntcOjx8wDWXFrKKDyfnGk/E92csOtS49jdwprI0+ONjuMwzRtYW7/uScHl+kVmuX/81GnaNpH1cxkOSBLixvzXAGGaSMRvcndFetzcbMt+6kOC1uvHJTt0NrTEylvHNhhOW8LXYoeo/k5VjUqnxEv79cV/+FPe2kC72c7NZMvseN04n9n81oR2vRlLesE2hY/AEFRkTyRHg5s5i7rTbXBri1oDY1+amnshrcP6sJtoTPEIznsj17k7/DdSSVCKzE1+TJcN8f7jRRUOrmYpARw91tJDJlRQBLn31UNdlhrk2NwEGN0+FSPA+uKF+jQ7XNDehXc5jGPKeQD0KKaoh37NE74MbKgON5/sxFXoTS9L4CjAQz4YOh4PMzMxxrs79V7aIiExNGk1AREQMSQFOREQMSQFOREQMSQFOREQMSQFOREQMSQFOREQMSQFOREQMSQFOREQMSQFOREQMSQFOREQMSQFOREQMSQFOREQMSQFOREQMSQFOREQMSQFOREQMSQFOREQMSQFOREQMSQFOREQMSQFOREQMSQFOREQMSQFOREQMSQFOREQMSQFOREQMSQFOREQMSQFOREQMSQFOREQM6auTXYEJ8fBrPFGRyzcBcPJRzQvcnaCi02o72G6dDrRfjwAAIABJREFU5p1xNlLz/I4JKnl00mo72J5ydsrUV0QkUnIEuM9e5WINvkD3QOL7+/a7MYLA2LMzlxr8ASPxosk/RlV1CucL1tA5aLkVc2jQLG/Blt/HgQ2b6BlBUUZR+PNfsP5R30z/H/j5xl/THW0d4Dr5Iv9eP9E1FJGJkBwBzrD6cacsJAfCg18yK6tkPa1sLWoDMtjyVgU//Pmf2frDNgBaf/girf5t877PvsrX2OJ6lTfPT1aFRWS8KMAB8BRzqn7EPLNv9uMmTv/qTWAL2bZiZvsWL7b5T41/5frB7/DpZ2NR9m42t5WQ7ptz2/eyb2f9oOVFbd0UAdCPfU8uJwHoxXE9lbzaMjp3RqYhu9nctpLePbmcbPcuyTnUTV7fXvbthHUnyuF6L1arBZyNNFNCkQVcTVkcrQseJedQN0UW79/h62LVm5Cs8woL/Nt47BOTWdbvZ2tg5iYfOjwsznyILAhkcQHn/8znlY8NPsam43S8YoVLe8jdqPROZKpSJxNgxnM/Yt7dJk7XFHK65mdcn1HME2ufAt6kq6aQ0wc7+BInH9UU+rYZq+BWxroTJZjte6kpyKKmoBG39WU2lwPs4GhBFjV77Lhx0lyQ5dsmGLAA/nvnWdzzniQt4bKnYZ3Xx4E9dtyWEvL69nLA3k/6gt3BTXzLawqyqGlykl7cQs6w9Q7sTFHbSnr3eNe7TFZWh62/D5TNI73/Yz5U9iZiSApwbOGhx5x89Ks3ffPv8en7Tr6ZlcfXxrvo/CfJxM7bgexrB6cjg8ywdnC1b2TBw9Xuz6icnB+UAQLOxmBWVncFFxYWlMdfb1eTPxjv4KoTzGllcdRqM788dYpTkdPbu8hL9AXmfZ8tOSZc538dkr1lsOWtX3Ck+RccWfdIxDqfY8+Sm5mp7E1kilMT5cOzMGFhdqD50cf9xfiXnZGC2WRhe1vEKdaZ2GE6G+3kleyGq2NXtcFc9HogFeKst5OrIU2dnc9nxXmd8Cg/WHt0lHUFKODHld+GzoMRnUhu8ubGF/H+nPEGu33fOkiV7eYYlCki9xMFOGCibx0IMxbXpto/wFFezrq03rGqVRTppJr66b0JZDCO19Q288tTRYFrewGeTvY9s4v4WhML+HFzIemftLJ1yMDlu0Y34xFAAU7EaNRE+dl5etwWFj+3ZYhtbuPBwkO5Y1x23RVcJivP1A7RdNd+B7e/aTCmek6295I5LzVi+TRSM7x/pdV2BDqLjERa7UrSPV1cbo+z3iN2lB+sXcvayGkkwc3Xc3KobdfnmHD9MWK7TcfpcDhwnLaN7CWIyH0hKTK4r639HXlPfD0w7+0N6c/a3uPTfUDVj1htKw5s8+XFn3Hx1Hu+uTfpemcBq9e3Mns9xN+Lsox1J17GavLPl2BrKwm54XsHRwtgc9vL2NpeDuwV3ltxB0ebFmIr7sZbvdBelCHqruAuLsHsibGfs5FmZ0li17EsvvpCRMYWT70nR1bNUm/292ghR5oLA8u997t5bxtYPI2I5REHOXaHvlfAlL4QG1AzAfUWkfExEM/kcDji2m48psksW1MyTmUDxzscA47TtvugLpo0aRrplBQZnEi8yt7qoHqJCVyNZK5W7iYylSnAiYSo35iLbg4QMQZ1MhEREUNSgBMREUNSgBMREUNSgBMREUNSgBMREUNSgBMREUNSgJP7TBnrTnRHDL0jIpI43Qc3AWY818rcvtBHf00R5S3Y8vsGP1Q5/xhV1VbMgUeODbFtUol4FFjY8zAjHxPm4aP9GklcZDwpg5MR6sedstA3AKoAZNX8C1mOg2wtepGtRa24Hi1kX43vade+YXq8615k68kvWFxZSeGQRxSR0UiiDG4L2bZiZvtn3R2c3/cqfx9uXe4brH78Kuf7VgYe2Bz+IObBD3O+9U4hXR0Ryx/7Eauf+JH374+bOB0YYHU4kQ9sdtJcsMY3ttpuNreVBIeWCXsg8m42ty3k6p4+8qqtmAetx5t1FQeHGHDb93oHOPVnaACEjvsWWnYvjuup5NWW0Rk5WOqgbG43m9tW0rsnl5Pt3nr12lOxWqfhtjfimFeC1eR7iHRgtPLQ1xZa7uDXHah3aNl18Iz/NYRmmuOo2/YqVYG5Nq59Usj6WEPxuL7AwwODFnsfFQb2n+by7LFxrKxIEkiSAOcNYKaLP+P0oGbCp5hTFbruKeZU/Yi857YEg9BjxeTRxOmaN70Bb30xM0695x0/7uHX+Mcn/hx1PLm/n/oOp0+NponSF9z6GqnZEHmCLmPdiRLM9r3U7KwPbLv90O6Qk7mFompoLsii0xcUVpfje+L/bjYXp2LfkxUSVHzaN7GvnWGbHf9751lSTzxJGvUJNktasKY0UtO0EFtxCalNWTQv6CZveVmgLunFK7HvyeJoO+Qc6qbo0G46n98R5XXvZnPby2wurw+OZGCysr3a6X3d+ceoql7Juvwdg1/nJMr6n49h+uRDWoffVERGKCmaKL+2diWz3R3832gBJreYeWYnNwLr3uPThg6+fGwBM/zbuDs47w92HVe5xUN84+HQg4zDWHEA5Ruwmpw0R8s+fOvOB7Knek7W2XFbQpsN+7Hv8Wc+O7jqBHNa6Bhu08hcPpox3XZwtc/K6oQ7hPRjb/S9Jo+d01GG2HE1BbO5zqtO8L+u/CfJxM7bgde9g9P2ftIX7A4/vv91t3+AwxMcF29IT+/it6dOcSpy+uXmRF8glFWy/lEPH/1X6FhzBfy4+Rccaf4FP8whYp1X/cZcMjOVvYmMhaTI4P4h5etw97avOTIK9xf8baQH/+xVLr7zRnCsuLCmz9FJS0sFT1fs7MjTN4oOHTs4umcmVdX+Md0imwHj09loJ69kN1wdcUWGd7MPNynevzNSMJtCm019nCF/+wdmBaCekxvifHzyuV1899wo6wqQ9332rXsE18kXIzqRtPHvRf6g5g12P06PMh6diIyJpAhwf+v7K/7zY1TmB/gHCAaltAf4ZiIFdLzA6Q7vnzOeayWv6rUxCXI9Pb0wb4gNTCmkQTDIZaT4rpvFyd8UiXfE7+1tLZBokGv/AEd5OevSehPZKzEZKZhDg3nktcSx8vQufvvDHL4eudzVzNofHI3vGHnfZ1/lt6Hz4DCBy3uN7ulvZRD1Gp2IjFpSNFH+/cp1vnysmOxozYgdV7mFhblrn/IteIo5yy18ebFp0DW1ePyt769Rl30zK4+vJXqwuiu4TFaeqY3SjFh3BRcW8gLryliXb8FtP5FwFga+YBrpZh9uUzaL8ofas56T7b1kzksNX+wLvv5rZulR9oyP73Vd/8Ab0IZ6T0br3C6+u3YtayOnEQS3KtswQSvv+zz9qIfu/xO+XdlbHTgcDlp/MsLXICIBSZHB8dmrXDz4Gk9UtLJ6vW9ZoCnxTbpqINsW0csxzg4hkT0owclHNeHZ299PHeR61o/Is7UGjx9XL8odHC2AzW3+ZkTv8b1NiVHWORt9HS/iENGD0nvdKjc8OLZv4u3lHWyv7sZaHVp2hLoruItLMHv882toXtBNUVs3RYCrqRFX8cr46uWTXtyNrdj7d1gvyajvCbiasoKdTCZJ4f/6NiaAnAqONPuX+u93K+DHzYUhgT76fXD1d/qoXmLCstAGaMBVkdGKa+hvh8MxacOOT2bZmjRN6LTp+ECHwzHQ+pP7oC6aNE3xKTkyOJH7XhnHO6qxmsB5IpPCf5vs+ohMfQpwIveFep7NVXdKkbGUFJ1MREQk+SjAiYiIISnAiYiIISnAiYiIISnAiYiIISnAiYiIISnAiYiIISnAiYiIISnAiYiIISnAiYiIISnAiYiIISnAiYiIISnAiYiIISnAiYiIISnAiYiIISnAiYiIISnAiYiIISnAiYiIISnAiYiIISnAiYiIISnAiYiIISnAiYiIISnAiYiIISnAiYiIISnAiYiIISnASVRptR3YDu2e7GqIiIzYVye7AjJC+ceoqrZidjZS8/wO77LyFmz5fRzYsImeya3d5Mn7Pvsqv43JP9//B36+8dd0x1jvOvki/14/4bUUkQmgDG5K68edspCcya7G/eT8r6kqepGtvumdz7/ND39e4FuZwZayx+je71t/8k+kr3uNLXmTWmMRGSdJkMFtIdtWDO8U0tURa9lTzKn6EfPMvtXuDs7ve5W/Azz8Gk9UPMCNmqs8ZCtmduT6oZS3YCuG5oI1dMZctpvNbSWk+9eHZmT5x6iqTuF8wRUW+Lfx2EMytF4c11PJqy2jc2dkGrKbzW0r6d2Ty8l275KcQ93k9e1l305Yd6IcrvditVrA2UgzJRRZwNWUxdG64FFyDnVTZPH+Hb4uvN5u+172+eswbL0njuuuB2b4527y5sZXgyvrr+NaV8iD6cD5kJ02HafjFStc2kPuRqV3IlNVEmRwb/Lnj2H241uCix6ehQknf/YFvK+tLYaGQk7XFHK65mdcJ5d/XPtUyDEsLLat5C8HCzld08Qtcy7puXEUXXcFFxYWlAcXpaWlgvNKIODlHFrI1YIsagqyqCloxGUpYXN56EEsFLWtpHePb73JyuqQ9f+98yzueU+SltB7AjAN67w+Duyx47aUkNe3lwP2ftIXhFx38y2vKciipslJenGLL1ssY92JEsz2vYF6u60vJ1TviZHB0kwTrj+2TXTBInIfSIIAB3d/38GXjy0I/JD/2sJ5cLGJu775v596gU8/82/9Hr3df+WbKZawY9x65zu+bbwB0/Q/nmJ4OzgdFjTKWDQP7I07Alt0Ph+S3bGDq04wp5WFHcXV5M/Coq3fwdW+kQUPV7s/o3JyflAGCDgbg1lZaLDOf5JM7Lwd2CfydcZT71g288tTpzgVOb29i7hbEssqOdL8C440V7CYP/BOjCSs8OeFpPdHWX/sWXIzM5W9iUxxSdBECXx2nh73j3goF+52PEVqFvQ0vBdc//BrPFGRyzdD9/k4dCaY7QHc/VUhF+Msuuf9LtzV3utknflPkkkXb7eHbFDegq04PJi6+8LLvhrSZNj5fJY3IOY/GVzWaCevZDdcjbNSI+Ki1wOpABkpmE0Wtrd1h2/iDJ+JWu9hHeUHa4+Orqr1+9nqj01llRxpruSdov20hmySVfMa6x/9E+8UhXRAERFDSY4Ax3v0dlcw7/EtdPXMIo3r/N9AxraF7IpcuPgzTp/yBr2vrf0deSljVHT7BzjKX2ZBOfSkZcP1uuB1qPxjVBVbwq5t5Rzqjj9TCSujnHVpvWNU6WjSSTX103sTyGAcr6lt5penioLXJP08nex7ZlfYpbK41F/HtW4paXkErrNl1bzGD3Pgo/3hQU9EjCVJAhz8/cp1viydxYyF8/C8/51BHUQ8/8+X0T38Gv/4xNcjMrjRqOfy9XKeSdvNonm9nN8Q2ezlCxoA5S0UWSIzuPjKONm+gar8VCB052mkZgDt3vvaRnZsr7TalaR7ujjdDrRfwVVcwjO1ZcEmzDEzBhlciKyapaT3f8w7g4Lbq7wZK1r6OpmYXI1krq4Zs7qIyMRKmgDHZ69y424ri59w8lHYOetNXBdXkre+ldnrAZxcv/hXvjlWGRzQs/Ms7rYSrM5Gwopu38T5km6KqruxVgMeO3anhcyRFFJ3BXdxCWaPf8EOjjYtxFbcja0Yb09JZ0li2aGlBFtbiffvsIxtB0cLYHPby9jaXg5sHtkDc1KUVXJk3SPB+bD74ApYn+O9A25x5S9YXBltG+DYHfpeAVP6QmyAQpzI1DUQz+RwOOLabjymySxbUzJOZQPHOxwDjtO2+6AumjRpGumUPBmcSBzK3uqgeokJ1DwpMuUpwImEqN+Yi24OEDGGpLgPTkREko8CnIiIGJICnIiIGJICnIiIGJICnIiIGJICnIiIGJIC3CTLOdSNrc07VdXG87T9+G07tJ+2Nu/UXJsxpscOsxUcv4Gxrf1k2M3mtg7W5Y/T4Z+GDkO8TyJTgwLcJOt83jsWXLNz+G0Tdfj5SgoKKmkch2MHPA0dRWA/wsTcP1beMujHQFptB7ZDu4fY6T5xDn5/F6oPTHZFRJKDApyMyvGtwCV49twEFurphxEN8jr5araDfQa0bp3smogYXxI9yWQ3m9tKgsOwhD08eIh15S3YFlzhQN9KtlunAeC27w17in5abUdgHUQ+dHiococXfmwnzQVr4hxXbXhP19byitUUmP+4qZLykIclbzu0n5Lwoer4i/0/KdrpG/5gK1iBPbtCtyhj3YmXybwe+h4NXhb+uvqx7/EPjuobMqhvL29THtgm/D3twuEb5DXy4c5ptR1sTzlLzfO+QWXzj1FVncL5gjV0lrdgW9CHPcWK1dSPvamLzGIr5sjPJOMYVdVWzDD48wobvy+83pS3YMvv40AdPOPf39kYrIvPs+fA8TSURcl6vY8KA/tPc3n2GCIyCkmSwXmDjNm+l5oCb5NgTeCkVca6E6Hr9mLHyvbQJi9LifekWZBFTZMTs3UDOf51+cd4xtpLs/+4BaEn4jiOPZTyFraHHPuAPZWiE8fGJnMp/1desd6lscDbjFnQ9AmPFddiyw+uL7F84lv/n3zkAZwtweAG2BaApzvyJF3P5ev9mMMyLO9Yco73fVvmH2M1dYH364AdrOXhr8tsfTnwnh+w95OeH77+cqMd84IRNEtarKS2Z9HsnIa1OIXzBY24TNksClx38y8Pfl7P+JtD849RVZyKfY/vs27qxVrdEvwuAJisbK/27b/HjtuycvA1vSPgnA7Ln068+iISv6QIcN6xzOy8HW3ssvINWE1OzgfW1XOyzo7bsjB44vLYOeD/FV53BRepfCvspGVhQXmUguM59hByFlhwNQUztp6dZyNOxiOVgS3/Uf5ib+Gwf1Hdf9DoNDFvubczyrYFj4Lzum/9Td697oGUhwg9J8+cAX1RUtFB9SxfSLrzbDDTad/E0ZDPouf9LtymlPDAHfKeR13f/gGOlCjBYzgeO6d9P0Dc9hNRsuF+7Hv873l4sE5bng32uuDrqDuB3RP52Yfs3/4BDo9vTL4Iffcg5bHBy+s35pKZqexNZCwkRRNlWso06LsTu1nQ0zfykanbN7EvoyU47lpkk9aIj13Gt1Ig3X/cgH7GatzuP/fcjLnuZp8HrPPYxu85TAYr5pn4y/WLhF5qS5kea+8dXHWWkLe8jJPt9d5AfXVNyHpvk2VI6ygQ3hPGff2D4PvWvol97UTwDfK6vIzLsV/iqPX09MI8799pKdMwW8LHwANwhc54urgcqGs9JwcNcOt15y7Mm4oXEUWmkKQIcD19/TDUAKa+7CB4DSbFe/0kXnVrqPFlBTmHutl+4lgwyI3y2OM5iOhDaRmAP8hlMDuFwIDg53ru8gqPUtK2nxIAz2V+ujM8IPbdi/22dl51UpT/JGmks8Di5OrzwXU5h17Gip0DBb73yHedLGF1V3C3bWCRPfFd45WWlgp9V+gB0hh8/XWkZs6AvqujPoyIDCEpmih73u/CbSlhc7RmxLoruLCQF+h2Xsa6fEuM5qs4yurrH6Nje5vH0otbhm7O3HScDocDR8fxBO6v8jY5fsO6hm3+ReVrWGz6hDM7b+Jvwvy4yXd9rqCSgg1vEdlR8s5dSImVhdRdwWVKIa18IeZorzeQUZexrtya2A+KgB2ctqeSOS9iccpMX3PmbjZXj/TY3v1XW6fhuuptKu286sRsLR+T++RSpkPfx4OXl73VgcPhoPUnoy9DJNklRQZH+yb2cYyq6pDmvkBT4g6OFsDmtpCmJ2cjNXH+So/sQent6ehvohzu2BE9LH3NX/4soWdnLgdqO9je1k2Rf5u4e2H+E3Vtawhc5rH8b9ragr0gz+3cCbW1vOLP0PDw0Z6dgWtuNe2f0Fa8n7bQ5lHPZX4aEuhqrkJJEdiAwUOD7uC0vYPtxWDfE/5edjbayasuwdbmLdllt+O2jiCDw/vjBas1kHn27KzDfuJltrd1A/3Ym+yYixM59jSs1d1Yq71zYRl03RpqaMEWsn5EPVu3guUeNEa5taL+Th/VS0xYFkZ/V0UkMXEN/e1wOCZt2PHJLDs5p4wB24n9A3Xlg5c112aEbXv8Nwx07Jrs+k6t6fhvGGjdGmP9puMDHQ7HQOtPJr+emjRN9SkpmiglUY/ygCliUf4TzDMN7pjy7BFgCRxXl/e42A6A9S4UHolcU8bxDgeOV6z0ncik8N8mo3YixvIVvJFuWA6Hg8zMzHGuzv1XdtIq/1faih8NWxR5I3jAVu+Ny3u+N0GP65qqnoaOrVCn90lkQijAiYiIIamJUkREDEkBTkREDEkBTkREDEkBTkREDEkBTkREDEkBTkREDEkBTkREDEkBTkREDEkBTkREDEkBTkREDEkBTkREDEkBTkREDEkBTkREDEkBTkREDEkBTkREDEkBTkREDEkBTkREDEkBTkREDEkBTkREDEkBTkREDOmriWx85cUHx6se93XZcn/4h+f/DwB/O/Q/J7kmIjIVfAUYiGdDh8NBZmbmOFfn/itb7h8OhwNA3wURiYuaKEVExJAU4ERExJCSI8DlH6OqrRtbWze2thZyJrs+cUqr7cB2aPdkV0NEZEpKqJPJlNW+iX3teANddUri+/v2O1+whs6wFWWsO/EyVpOT5sC63WxuW0nvnlxOto9B3aeivO+zr/LbmPzz/X/g5xt/TXdggwy2vFXB4mm+2U9a2frDtomupYgYXHJkcOPM7UllQflk1+I+cv7XVBW9yFbf9M7n3+aHPy8IrM6q+ReyHAd961txPVrIvpqMSaywiBhRcmRww/JnYr5ZZyM1z+/Am42VkO5bXNTWTREA/dhDMjT39S7M+cdIq9tET5TjprZncbTOuySttoPtKWepeX4HabUdPEMXbquVdJw0N0FRsSWkfK+cQ90UWbx/u5qCx4pd7/Cyry7w7x9e74niuuuBGcH5bturVAXm2rj2SSHrZzwC3AzZy0arowSLq5HM1TUTVlcRMQ5lcEDOoZex9jVSU5BFTcFe7CklVNWWATs4WpBFzR47bpw0F2T5tokIEj2bON+XzaL8xMs2W7Pp3bMXu8dCUX4fB/bYcVsWBq8TWkrI69vrLbfJSXpx8Bpi7HoHpRd3B/Zvdk7DWjLR1/QyWJppwvVHNUGKyMRSgGM3CyxOmgOZTz0n252Y5z1JWgJH6bzaO7Lg4TwbCJau9sgMEHA2sm9nvffvuiu4sPiaQ+Osd8j+nVedkDIzrte1+ZenOHUqcvotu56O83WVVXKk+Rccaa5gMX/gnfrY261/1MNH/xUZAGsozMxU9iYiI6YmyvyZmLGEND/6ePoSO07dCewnNpDDlbGsXQQXvR5Ihbjr7boabOqkbg01dcTl6A/WcnQ0Va3fz1Z/UCur5EhzJe8U7ac1dJu877Nv3SO4Tr7Im+dHU5iIyGAKcACE9oIcqXouXy/nmdqZuMeoVoOlk2rqpzdwqWos6h3d5l+eoig9culf6fz5d9l1LsGD1V/HtW4paXmAP5D5elrSeZB/j5XdiYiMgpoo2z/A4bFQNNT9Zu13cAeaBmPr2XkW97xszBHLzWm+62LlLWy3Thu0X7zSaleS7unicnuc9R6Foz9Yy9q1kdMIghuQVbOU9P6P+TBKcKuy3Yyxl41WhwNHx3HKYmwhIjKUpMjg0mo7wgKLt1nPn/3Uc3IDcOJlbG0lgW3c9r3Ba1/s4GjTQmzF3diKIXZvxB1c7SuhyNTvm6/nZN2TZFa/jK3tZfDYabanUpTIrXiWkmC9PHYObPBfp4un3pOkrJIj6x4JzkfcB1f4v3z3yOVUcKTZv5GHj/a/GtJU6aTPAxbTPJZvgvpjE1R3ETGUgXgmh8MR13bjMU1m2Zomb7Kddgw4Oo4PlIV8D/Rd0KRJU7xTUmRwMsX8pBXHBgt47OzJfRZdohORkVCAk/vPvxWS+W+TXQkRmerUyURERAxJI3rLlKPvgojEQyN6i4iIIamJUkREDEkBTkREDEkBTkREDEkBbpLlHOrG1uadIoe6Ga1th/bT1uadmmvHcUDRreD4DSGP1NrN5jb/6+pg3QiGEZocu9k8nvV9GjrC3icRGU8KcJOs8/ks31htY3/sw89XUlBQSeM4HDvgaegoAvsRQm7I9o2jV9CIa4SHzTkUI+CXtwz6MZBW24FtnJ7JOabOwe/vQvWBya6ISHJQgJNROb4VuATPjuAhzCPm6YcEx+u7X9RsB/sMaN062TURMb4kepLJbja3lRAYASbswcVDrCtvwbbgCgf6VgYe2Bz5QOPIhzm7mrI4Ghh3bahyhxd+7LEdHufp2lpesZoC8x83VVIeMl7ctkP7KbGE7/MX+39StNM3AsBWsAJ7diVedqzXFbbc4ntINYCzkZrA4K5dOPqsrC4n5H0OOW7K2eC2+ceoqk7hfMEaOstbsC3ow55ixWrqx97URWaxFXPkZ5JxjKpqq3dUiMh15S3Yiv1vSsRDt8tbsOX3caAOnvHvH1Zvr2fPgeNpKAvLer3K3uqgegnYf5rLs3rAtMioJEkG5w0yZvteagq8TYI1gZNWGetOhK7bix0r20ObvCwl3pNmQRY1TU7M1g3k+NflH+MZay/N/uMWhAa3OI49lPIWtocc+4A9laITx8Ymcyn/V16x3qWxwNuMWdD0CY8V12LLD64vsXziW/+ffOQBnC3B4AbYFoCne/BJejSvq2dnbqDJ1h36eUUEicuNdswLRtAsabGS2p5Fs3Ma1uIUzhc04jJlsyhw3c2/PPh5PeNvDs0/RlVxKvY9vjo19WKtbgl+FwBMVrZX+/bfY8dtWTn4mt4RcE6H5fGOji4iI5IUAc47jpqdt6MNI1O+AavJyfnAunpO1tlxWxYGT1weOwf8J9i6K7hI5VthJ60YY8XFc+wh5Cyw4GoKZmw9O89GnIxHKgNb/qP8xd7CYf+iuv+g0Wli3nJvZ5RtCx4F53Xf+pu8e90DKQ9bywa+AAAM/0lEQVQRek6eOQP64k1FQ4zJ62r/AEdKlOAxHI+d074fIG77iSjZcD/2Pf661XP5ej9mX3No2vJssNcFM7a6E9g9kZ99yP7tH+DwTCM1Sv+evnuQ8tjg5fUbc8nMVPYmMhaSookyLWUa9N2J3Szo6Yu7yXCQ9k3sy2gJjhUX2aQ14mOX8a0USA+MQefXT+9I6xrhzz2xBhuFm30esM5jG7/nMBmsmGfiL9cvEnqpLWX6SEodq9dVz8n2DVQtL+PySKoRp56eXpjn/TstZRrm0GZTn7CONP4Baf113BA9v71zF+ZNxYuIIlNIUgS4nr5+GGqQUVOKt3nMP5+RMmhU7iHVraHGlxXkHOpm+4ljwSA3ymOHX88bWw+lZQD+IJfB7BSgzzt3rucur/AoJW37KQHwXOanO8MDYt+9od/WoYzJ66q7grttA4vsozzOENLSUqHvCj1AGmM3oOzMGdB3ddSHEZEhJEUTZc/7XbgtJWyO1oxYdwUXFvIC3c7LWJdvidF8FUdZff3BmVEd29s8ll7cMnRz5qbjdDgcODqOJ3B/lbfJ8RvWNWzzLypfw2LTJ5zZeRN/E+bHTb7rcwWVFGx4i8iOknfuQkrCWUh8r6unL9g0GNsOTttTyZwXsThlpm+/3Wz2d/YYkd2stk7DddXbPN151YnZWj4m98mlTIe+jwcvL3urA4fDQetPRl+GSLJLigyO9k3s4xhV1SHNYoGmxB0cLYDNbRE99uL8lR7Zg9LbI9DfRDncsSN6WPqav/xZQs/OXA7UdrC9rZsi/zZx98L8J+ra1hC4zGP537S1BXtBntu5E2precWfoeHhoz07A9fcato/oa14P22hzYiey/w0JNDVXIWSIrABNaFFh/U0hPTqbqzVwR6H8byunp112E+8zPa27uD7FtHRBLw/XrBaA5ln+H792JvsmIsTyTOnYa3uxlrtnQvLNOvWUEMLtpD1I+rZuhUs96Axyq0V9Xf6qF5iwrJw0LsqIiMQ19DfDodj0oYdn8yyk3PKGLCd2D9QVz54WXNtRti2x3/DQMeuya7v1JqO/4aB1q0x1m86PtDhcAy0/mTy66lJ01SfkqKJUhL1KA+YIhblP8E80+COKc8eAZbAcXV5j4vtAFjvQuGRyDVlHO9w4HjFSt+JTAo1ornIqGk8OImu/F9pK340bFHkjeABW703Lu/53gjuiUsmT0PHVqjT+yQyIRTgRETEkNREKSIihqQAJyIihqQAJyIihqQAJyIihqQAJyIihqQAJyIihqQAJyIihqQAJyIihqQAJyIihqQAJyIihqQAJyIihqQAJyIihqQAJyIihqQAJyIihqQAJyIihqQAJyIihqQAJyIihqQAJyIihqQAJyIihqQAJyIihqQAJyIihqQAJyIihqQAJyIihqQAJyIihpScAW7FUip2ZWOOsTq9spTSUtOEVimZmEsLqaicOdnVEBGD++pkV2DimVi0bBbOCx/ijrZ6bjZLZt/m0n7PRFds4s3NpnSbmUsvfYgrbIWJRbvWsGTabc4E1s1k5evz+fxwK5dvTEZl7w/plaWsmu2b6b9Gw66u4PdoxVIqCmcFN751gYP770xwDUXEL/kC3NxZzOUaZ96Nvtq8aA50Rp7wk5O730TGCnDFeK+SzoqlrOICB1+6g/9HQGnlvWAQe/dDDgbeK9/60hYaGpLgx5LIfSjpAlz66vngaImevTGTxTlw4/DEnpDMpYWU5kwPzDtbGzjrO1GGZQzc41IggzKxaNdSePsaD25bhgWA0IwLvFmXfx0hGUf48lWvl0Y5Pnzh+JQHlmVjfrcr4v0anM2lV5aypLeFhga89XJ4WJIzC25d4AzLWDU7/HVFvrbwdf4M0jcblgl51z14oYGbj/v3D6/3uAkLYB5cjnssyZyOmTtRvk8e3NG+ZHOzKd02HzoV+ETGW3IFuGGaH82l87HcusbZCWyC8wY3D2deah2UNZpLC1llvkbDS94AYy4tpHTbUtyBIDadJdvmc+lwA2dv+IJCqQmX78SZXrmMBzpbODjoRHqHsy81DNFE6dPbxaXUQtLndiUYPKazJPNTGg67WbVtGUs6W2joXUrp4zPhXV+gmu1dfnC/x9e0t5T0d731SK9cwxL3BQ7uCsmUIjIhS2Gp97Xt93gD5eqZXL5xPzUHziRj9j1unFYQE5ksSRXgzIvmYL51LUbzo4n0zOk4L0zkSXImi3Om42wdHNyC64LZk7vhQy5lrglrNnS2+jMXX0aRagKCJ1Vz5izMRGZg8XP90UPF6pkJZ0fOC124yQZuc6nBA6URG9y6EAxY7/4JZ+Ey3+uaScbs25x5yf85eLh84TZLlkW8jpD9XX+8DctiZVKhIjJav8hrafGYm82qiM8HIrLxWxcG/1i60UXDS12JlCQiI5REAc7b/HjpcIwAtmI+S7hGw0Reb5o7nQe4x43bsTa4x+cx1w3Ptb+FS7vWUPr6fGBwE2Fc3r3GpWXzSedPI6/IsDx83g8Pgu89mRXSbOrTHx5+nH8M+RzDmg6H4stcR20mK33NjJHvp7uhlYO+IsylhVTsmp548BSRMZE8AW7FI1j6P+WjGJlI+uOzcDuuTeyJ6MY9vhhyg+k8OAsI1NnEg9OG2HwQD5d3NXAZfM2Rpawk0SDnweUwsap0+jB1HQ0TD04LDeaR1xLHylhkcL5j3LoQpek3nPvyp7hzzJhBAU5kEiRJgLtfbw24w81by1j1TDauQSfYO9y8BatCOnmYS+dj6R9hlhktmN64xxfMH7anpLvhGl/sms8DwOeBpcHgay4tZNVscPeOoF74X5f/x8dtbvTPZ1XlzHHoYj/aDC4kuMVRt/TV8zHfuhAeqH2dTMy6hUBk3CVHgJs7i7nTbnNpiFsDYl+bG1+u/Q2cqSwNNCNCsClx8LrbnHkpwUwjZIm7syUiON7hbOttKgpLqSiE2L0R73DTvYxV0+5F3+/WBc7cWsaS+F82zF5Gxeu+v8MyKA+Xd7XArjXB9f66T3KvQ3PpfO/7GVp3gp9XZG/YqPfB+X5omGc/Qjp3dDuKyDgbiGdyOBxxbTce02jLTq8sHSgtNcVYP3Ng5euFA4vmTs5r05Rsk2lg0a7SgYrKmfdBXTRpMvb0Fd8fw3I4HGRmZsaz6ZibzLJFxkogw1PzpMiESI4mSpH7QGgPSxEZf8n5sGURETE8BTgRETGkKRHgdP1NREQSNSUCnIiISKIU4ERExJAU4ERExJCMGeBSl7PxhSKyJ7DIGc+1str2O+Y8PIGFiohITIYMcNlPzIerHzI1BiV5ijlVrWTnTnY9RESMZWoGuCEztGzmzr7D5Q/6JrRKd39VyOma7/DpZ2N51BSWP7uR5aljeUwRkeQw9Z5kkl3EC0/P5M65N6JmaClPLmLmrcs0Ryz/2trfkffE1wPzt94ppKsjZIPcN1i9Pvho4i8v/oyLp96Dh1/jiYoHuFFzlYdsxcwGcHdwft+r/B1863P5JgBOPqp5gbuBozzFnKoKaDjLNyp8+4ZsM+O5VhY/5tt0fSuz10eUTR/vd/bzwndf4IFzb9A8NVJSEZH7RlwPrZzMhy37p5QnNw688MLGgeWpsbbJHiiKtv7h1waesL0xMCPWsXPfGFht+93AnIejrHv4tYEnbK0h67cMZNtaB7Jz4ynjqYE5Va1hx57xXOvA6ue2DNpm0PFCp9TlAxtfeGFg45Mpk/4ZaNKkSdNUmaZME2X2P7/A9xb0c+6Nt3g/1rhj2XOZ6fmU61HXW3go6nWup5iz3MKXFw8O2bx46x1/8+Ob/PljMP2Pp+Kue3BfuPtHJ8yYxdfi3hvofZ+33jhH/4Lv8cI/T2TXGRGRqWuKBLhs5s4ebpsUlufM5E7n+wy6+vbZq1x8x8ns9a2strWyuuq1kABj4Rtm8Py/94Y4tpM/hzRn3v1Voa8JcYTMD/API9139iJdkxMRicMUuQbXRfMbXaQ8uZHvvbCRB38bJYtLnccc0x0ux7pO1fECp31BasZzreRVvea7jubkL274xnhWP5L7C/6WyPapy9n43flw9Te8McGdZ0REpqopksF59X3wFm+c62f+d1+gKKKlLpFbA/7W99eQuffo7f4rs9e/wYyxrGxUW8heb+HL7vPeDiq+8v9yF2Y/viX6Lr7g1n/uDd5ScBMRidsUyeBCdDXzRt9yNn63iOyuZl9Ay2bu7Ht8ejF6AIjsQentyfhqIMj8/dR3OM/vyLO1BrYI9mQcWuSxF9taiexNOTtqD8mgu79q4patmNW24ohtUli+eg6f/vaN2NcdRUQkprh6o9wPvShjTSlPbhx44Z+zJ70eg6c4ekhq0qRJk6ZxmaZeBhdF3wdv8cZkV0JERO4rU+oanIiISLy+gjeVG5bD4dDAoyIiMmUogxMREUNSgBMREUNSgBMREUNSgBMREUNSgBMREUP6/xo+eeLzjKumAAAAAElFTkSuQmCC;" vertex="1" parent="JSBXhnSBdoEHyfM7yJ-U-25">
          <mxGeometry x="310" y="129.99999999999997" width="110" height="197.25" as="geometry" />
        </mxCell>
        <mxCell id="xzAWG37LkjonEWlrzQVd-2" style="edgeStyle=orthogonalEdgeStyle;rounded=0;orthogonalLoop=1;jettySize=auto;html=1;exitX=1;exitY=0.5;exitDx=0;exitDy=0;entryX=0.5;entryY=0;entryDx=0;entryDy=0;" edge="1" parent="1" source="xzAWG37LkjonEWlrzQVd-1" target="JSBXhnSBdoEHyfM7yJ-U-19">
          <mxGeometry relative="1" as="geometry" />
        </mxCell>
        <mxCell id="xzAWG37LkjonEWlrzQVd-5" style="edgeStyle=orthogonalEdgeStyle;rounded=0;orthogonalLoop=1;jettySize=auto;html=1;exitX=0.5;exitY=1;exitDx=0;exitDy=0;entryX=0.527;entryY=0.15;entryDx=0;entryDy=0;entryPerimeter=0;" edge="1" parent="1" source="xzAWG37LkjonEWlrzQVd-4" target="JSBXhnSBdoEHyfM7yJ-U-9">
          <mxGeometry relative="1" as="geometry" />
        </mxCell>
        <mxCell id="xzAWG37LkjonEWlrzQVd-4" value="anonymous&lt;br&gt;&lt;div style=&quot;color: rgb(255, 255, 255); background-color: rgb(0, 0, 0); font-family: Consolas, &amp;quot;Courier New&amp;quot;, monospace; font-size: 14px; line-height: 19px;&quot;&gt;&lt;div&gt;var &lt;span style=&quot;color: #9cdcfe;&quot;&gt;varNumber&lt;/span&gt; &lt;span style=&quot;color: #d4d4d4;&quot;&gt;=&lt;/span&gt; &lt;span style=&quot;color: #b5cea8;&quot;&gt;2&lt;/span&gt;;&lt;/div&gt;&lt;div&gt;&amp;nbsp; &amp;nbsp; &amp;nbsp; &lt;span style=&quot;color: #569cd6;&quot;&gt;var&lt;/span&gt; &lt;span style=&quot;color: #9cdcfe;&quot;&gt;varString&lt;/span&gt; &lt;span style=&quot;color: #d4d4d4;&quot;&gt;=&lt;/span&gt; &lt;span style=&quot;color: #ce9178;&quot;&gt;&quot;이것은 변수 문자열 입니다.&quot;&lt;/span&gt;;&lt;/div&gt;&lt;div&gt;&lt;div style=&quot;line-height: 19px;&quot;&gt;&lt;div&gt;let &lt;span style=&quot;color: #9cdcfe;&quot;&gt;letNumber&lt;/span&gt; &lt;span style=&quot;color: #d4d4d4;&quot;&gt;=&lt;/span&gt; &lt;span style=&quot;color: #b5cea8;&quot;&gt;23&lt;/span&gt;;&lt;/div&gt;&lt;div&gt;&amp;nbsp; &amp;nbsp; &amp;nbsp; &lt;span style=&quot;color: #569cd6;&quot;&gt;const&lt;/span&gt; &lt;span style=&quot;color: #9cdcfe;&quot;&gt;constNumber&lt;/span&gt; &lt;span style=&quot;color: #d4d4d4;&quot;&gt;=&lt;/span&gt; &lt;span style=&quot;color: #b5cea8;&quot;&gt;23&lt;/span&gt;;&lt;/div&gt;&lt;/div&gt;&lt;/div&gt;&lt;/div&gt;" style="rounded=0;whiteSpace=wrap;html=1;" vertex="1" parent="1">
          <mxGeometry x="40" y="250" width="200" height="180" as="geometry" />
        </mxCell>
      </root>
    </mxGraphModel>
  </diagram>
</mxfile>
